<svg width="210" height="97" viewBox="0 0 210 97" fill="none" xmlns="http://www.w3.org/2000/svg">
<g filter="url(#filter0_d_6_76)">
<rect x="25" y="11" width="172" height="59" rx="16" fill="white"/>
<path d="M46.3746 31.4592H54.1239" stroke="#292D32" stroke-width="0.968662" stroke-linecap="round" stroke-linejoin="round"/>
<path d="M68.8011 28.7194L74.2807 34.1989" stroke="#292D32" stroke-width="0.968662" stroke-linecap="round" stroke-linejoin="round"/>
<path d="M68.8011 34.1989L74.2806 28.7194" stroke="#292D32" stroke-width="0.968662" stroke-linecap="round" stroke-linejoin="round"/>
<path d="M46.3746 52.7507H54.1239" stroke="#292D32" stroke-width="0.968662" stroke-linecap="round" stroke-linejoin="round"/>
<path d="M50.2493 56.6253V48.876" stroke="#292D32" stroke-width="0.968662" stroke-linecap="round" stroke-linejoin="round"/>
<path d="M66.3937 51.1363H74.143" stroke="#292D32" stroke-width="0.968662" stroke-linecap="round" stroke-linejoin="round"/>
<path d="M66.3937 54.3651H74.143" stroke="#292D32" stroke-width="0.968662" stroke-linecap="round" stroke-linejoin="round"/>
<path d="M104.26 46.48C104.697 46.48 105.097 46.4267 105.46 46.32C105.823 46.224 106.137 46.0853 106.404 45.904C106.671 45.7333 106.873 45.5253 107.012 45.28C107.161 45.0453 107.236 44.784 107.236 44.496C107.236 44.24 107.167 44.0267 107.028 43.856C106.889 43.6853 106.623 43.6 106.228 43.6H103.46V40.704C103.46 40.2987 103.519 39.9253 103.636 39.584C103.764 39.2427 103.945 38.9493 104.18 38.704C104.415 38.4587 104.697 38.2667 105.028 38.128C105.369 37.9893 105.748 37.92 106.164 37.92H108.004L108.084 39.328H106.116C105.753 39.328 105.439 39.4453 105.172 39.68C104.905 39.904 104.772 40.2453 104.772 40.704V42.208H106.468C106.873 42.208 107.209 42.2613 107.476 42.368C107.743 42.464 107.951 42.6027 108.1 42.784C108.26 42.9653 108.372 43.184 108.436 43.44C108.5 43.6853 108.532 43.9573 108.532 44.256C108.532 44.768 108.425 45.2427 108.212 45.68C107.999 46.1173 107.705 46.496 107.332 46.816C106.969 47.1467 106.537 47.4027 106.036 47.584C105.545 47.776 105.012 47.872 104.436 47.872H103.06C101.865 47.872 100.937 47.504 100.276 46.768C99.6147 46.032 99.284 45.024 99.284 43.744V40.912H100.58V43.696C100.58 44.528 100.788 45.2 101.204 45.712C101.62 46.224 102.303 46.48 103.252 46.48H104.26ZM108.605 46.48H108.877C109.368 46.48 109.784 46.4 110.125 46.24C110.477 46.0907 110.765 45.888 110.989 45.632C111.213 45.376 111.379 45.0827 111.485 44.752C111.592 44.432 111.645 44.096 111.645 43.744V39.376H112.957V43.744C112.957 44.3413 112.856 44.8907 112.653 45.392C112.461 45.904 112.189 46.3413 111.837 46.704C111.496 47.0773 111.091 47.3653 110.621 47.568C110.163 47.7707 109.661 47.872 109.117 47.872H108.685L108.605 46.48ZM114.9 34.08H116.212V44H114.9V34.08ZM121.265 42.592C121.692 42.592 121.991 42.5013 122.161 42.32C122.332 42.1387 122.417 41.9627 122.417 41.792C122.417 41.696 122.396 41.568 122.353 41.408C122.321 41.248 122.252 41.0027 122.145 40.672C122.039 40.3413 121.884 39.8987 121.681 39.344C121.479 38.7787 121.217 38.048 120.897 37.152L122.145 36.64L123.825 41.392C123.975 41.8293 124.151 42.1387 124.353 42.32C124.556 42.5013 124.855 42.592 125.249 42.592H125.457C125.692 42.592 125.809 42.8213 125.809 43.28C125.809 43.76 125.692 44 125.457 44H125.249C124.897 44 124.556 43.936 124.225 43.808C123.905 43.68 123.612 43.3973 123.345 42.96C123.121 43.3653 122.839 43.6427 122.497 43.792C122.167 43.9307 121.804 44 121.409 44H117.969L117.889 42.592H121.265ZM126.909 42.592C127.293 42.592 127.592 42.4907 127.805 42.288C128.029 42.0853 128.141 41.7973 128.141 41.424V39.376H129.453V41.488C129.453 42.2987 129.234 42.9227 128.797 43.36C128.37 43.7867 127.773 44 127.005 44H125.453C125.314 44 125.224 43.9467 125.181 43.84C125.128 43.7227 125.101 43.552 125.101 43.328C125.101 43.072 125.128 42.8853 125.181 42.768C125.224 42.6507 125.314 42.592 125.453 42.592H126.909ZM127.645 47.2H126.077V45.824H127.645V47.2ZM133.576 44C133.288 44 133.011 43.9627 132.744 43.888C132.477 43.8027 132.243 43.664 132.04 43.472C131.848 43.28 131.693 43.0293 131.576 42.72C131.459 42.4 131.4 42.0053 131.4 41.536V34.08H132.712V41.248C132.712 41.6533 132.797 41.9787 132.968 42.224C133.149 42.4693 133.432 42.592 133.816 42.592H134.136C134.371 42.592 134.488 42.8213 134.488 43.28C134.488 43.76 134.371 44 134.136 44H133.576ZM134.781 42.592C135.623 42.592 136.045 42.2027 136.045 41.424V39.376H137.357V41.424C137.357 41.6373 137.394 41.8187 137.469 41.968C137.543 42.1173 137.639 42.24 137.757 42.336C137.874 42.4213 138.007 42.4853 138.157 42.528C138.317 42.5707 138.477 42.592 138.637 42.592C139.554 42.592 140.013 42.2027 140.013 41.424V39.376H141.325V41.424C141.325 41.8613 141.437 42.1653 141.661 42.336C141.895 42.5067 142.167 42.592 142.477 42.592C142.85 42.592 143.138 42.4907 143.341 42.288C143.554 42.0853 143.661 41.7973 143.661 41.424V39.376H144.973V41.424C144.973 41.6373 145.005 41.8187 145.069 41.968C145.143 42.1173 145.239 42.24 145.357 42.336C145.474 42.4213 145.607 42.4853 145.757 42.528C145.906 42.5707 146.055 42.592 146.205 42.592H146.541C146.775 42.592 146.893 42.8213 146.893 43.28C146.893 43.76 146.775 44 146.541 44H146.205C145.81 44 145.442 43.9307 145.101 43.792C144.77 43.6533 144.493 43.3813 144.269 42.976C144.023 43.3813 143.735 43.6533 143.405 43.792C143.085 43.9307 142.775 44 142.477 44C142.103 44 141.757 43.9307 141.437 43.792C141.117 43.6533 140.845 43.3813 140.621 42.976C140.375 43.3813 140.077 43.6533 139.725 43.792C139.373 43.9307 139.01 44 138.637 44C138.231 44 137.853 43.9307 137.501 43.792C137.159 43.6533 136.877 43.3813 136.653 42.976C136.407 43.3813 136.119 43.6533 135.789 43.792C135.458 43.9307 135.106 44 134.733 44H134.141C134.002 44 133.911 43.9467 133.869 43.84C133.815 43.7227 133.789 43.552 133.789 43.328C133.789 43.072 133.815 42.8853 133.869 42.768C133.911 42.6507 134.002 42.592 134.141 42.592H134.781ZM151.155 43.072C150.878 43.2427 150.606 43.3867 150.339 43.504C150.072 43.6213 149.784 43.7173 149.475 43.792C149.176 43.8667 148.846 43.92 148.483 43.952C148.12 43.984 147.704 44 147.235 44H146.547C146.408 44 146.318 43.9467 146.275 43.84C146.222 43.7227 146.195 43.552 146.195 43.328C146.195 43.072 146.222 42.8853 146.275 42.768C146.318 42.6507 146.408 42.592 146.547 42.592H147.283C147.688 42.592 148.046 42.5813 148.355 42.56C148.675 42.5387 148.968 42.5013 149.235 42.448C149.502 42.3947 149.752 42.3253 149.987 42.24C150.222 42.144 150.462 42.0267 150.707 41.888L153.091 40.512C153.006 40.32 152.92 40.1547 152.835 40.016C152.76 39.8667 152.659 39.7387 152.531 39.632C152.403 39.5253 152.248 39.4453 152.067 39.392C151.886 39.3387 151.656 39.312 151.379 39.312H147.891L147.987 37.904H151.571C151.859 37.904 152.147 37.9413 152.435 38.016C152.734 38.0907 153.011 38.24 153.267 38.464C153.534 38.688 153.779 39.008 154.003 39.424C154.227 39.84 154.414 40.3893 154.563 41.072L151.155 43.072Z" fill="black"/>
</g>
<defs>
<filter id="filter0_d_6_76" x="0" y="0" width="210" height="97" filterUnits="userSpaceOnUse" color-interpolation-filters="sRGB">
<feFlood flood-opacity="0" result="BackgroundImageFix"/>
<feColorMatrix in="SourceAlpha" type="matrix" values="0 0 0 0 0 0 0 0 0 0 0 0 0 0 0 0 0 0 127 0" result="hardAlpha"/>
<feOffset dx="-6" dy="8"/>
<feGaussianBlur stdDeviation="9.5"/>
<feColorMatrix type="matrix" values="0 0 0 0 0 0 0 0 0 0 0 0 0 0 0 0 0 0 0.17 0"/>
<feBlend mode="normal" in2="BackgroundImageFix" result="effect1_dropShadow_6_76"/>
<feBlend mode="normal" in="SourceGraphic" in2="effect1_dropShadow_6_76" result="shape"/>
</filter>
</defs>
</svg>
