<svg width="38" height="57" viewBox="0 0 38 57" fill="none" xmlns="http://www.w3.org/2000/svg">
<path d="M27.8535 15.7935C27.8612 15.7147 27.8657 15.6347 27.8657 15.5538V13.1452C27.8657 11.8171 26.7852 10.7366 25.4571 10.7366H25.1712L27.2315 1.98009C27.3157 1.62193 27.2317 1.2451 27.0032 0.956551C26.7748 0.66812 26.4271 0.5 26.0592 0.5H11.6076C11.2397 0.5 10.892 0.66812 10.6636 0.956551C10.4351 1.2451 10.351 1.62193 10.4352 1.98009L12.4957 10.7366H12.2098C10.8817 10.7366 9.80116 11.8171 9.80116 13.1452V15.5538C9.80116 15.6347 9.80549 15.7147 9.81332 15.7935C4.31689 16.9078 0.166748 21.7766 0.166748 27.5968V44.457C0.166748 51.0976 5.56912 56.5 12.2098 56.5H25.4571C32.0977 56.5 37.5001 51.0976 37.5001 44.457V27.5968C37.5001 21.7766 33.3499 16.9078 27.8535 15.7935ZM12.2098 13.1452H14.0162H20.0377V10.7366H14.97L13.1282 2.9086H17.6291V7.72581H20.0377V2.9086H24.5387L22.4784 11.6651C22.3942 12.0232 22.4781 12.4002 22.7067 12.6886C22.935 12.977 23.2828 13.1452 23.6507 13.1452H25.4572L25.4573 15.5538H12.2098V13.1452ZM35.0915 44.457C35.0915 49.7694 30.7695 54.0914 25.4571 54.0914H12.2098C6.89735 54.0914 2.57535 49.7694 2.57535 44.457V27.5968C2.57535 22.2844 6.89735 17.9624 12.2098 17.9624H25.4571C30.7695 17.9624 35.0915 22.2844 35.0915 27.5968V44.457Z" fill="black"/>
<path d="M18.8335 23.3817C11.8609 23.3817 6.18835 29.0542 6.18835 36.0269C6.18835 42.9995 11.8609 48.672 18.8335 48.672C25.8062 48.672 31.4787 42.9994 31.4787 36.0269C31.4787 29.0543 25.8061 23.3817 18.8335 23.3817ZM18.8335 46.2634C13.1891 46.2634 8.59696 41.6713 8.59696 36.0269C8.59696 30.3824 13.1891 25.7903 18.8335 25.7903C24.478 25.7903 29.0701 30.3824 29.0701 36.0269C29.0701 41.6713 24.478 46.2634 18.8335 46.2634Z" fill="black"/>
<path d="M20.6399 30.0054H20.0378V28.199H17.6292V30.0054H17.027C15.6989 30.0054 14.6184 31.0859 14.6184 32.414V34.8226C14.6184 36.1507 15.6989 37.2312 17.027 37.2312H18.8335H20.6399V39.6398H17.027V38.4355H14.6184V39.6398C14.6184 40.9679 15.6989 42.0484 17.027 42.0484H17.6292V43.8549H20.0378V42.0484H20.6399C21.968 42.0484 23.0485 40.9679 23.0485 39.6398V37.2312C23.0485 35.9031 21.968 34.8226 20.6399 34.8226H18.8335H17.027V32.414H20.6399V33.6183H23.0485V32.414C23.0485 31.0859 21.968 30.0054 20.6399 30.0054Z" fill="black"/>
</svg>
