<svg width="1039" height="1163" viewBox="0 0 1039 1163" fill="none" xmlns="http://www.w3.org/2000/svg">
<path fill-rule="evenodd" clip-rule="evenodd" d="M112.572 340.346C141.16 389.643 181.514 452.133 237.558 485.619C255.941 496.603 276.014 504.467 297.913 507.721C311.37 515.064 325.703 520.715 340.961 524.126C341.09 524.204 341.218 524.282 341.347 524.359C341.575 524.497 341.804 524.635 342.033 524.771C352.967 531.304 364.499 536.734 376.658 540.746C380.43 543.361 384.278 545.849 388.203 548.194C390.741 549.71 393.31 551.166 395.911 552.559C423.145 596.508 459.079 644.905 506.022 672.953C534.052 689.701 566.011 699.196 602.381 696.155C638.748 693.115 679.502 677.543 725.129 644.2C831.398 566.544 861.671 472.615 884.99 400.264L884.993 400.255L885 400.232L885.014 400.188L885.015 400.186L885.019 400.175C887.174 393.489 889.27 386.986 891.361 380.698C903.729 343.512 915.914 313.899 939.136 297.877C962.338 281.869 996.644 279.377 1053.4 296.69L1053.57 296.144C996.762 278.816 962.235 281.246 938.812 297.407C915.41 313.553 903.178 343.358 890.819 380.518C888.718 386.836 886.612 393.368 884.447 400.084C861.129 472.43 830.907 566.195 724.792 643.739C679.226 677.037 638.57 692.556 602.333 695.586C566.099 698.615 534.258 689.158 506.315 672.462C459.784 644.66 424.069 596.791 396.915 553.093C398.581 553.971 400.26 554.824 401.953 555.65C403.65 557.05 405.363 558.426 407.094 559.776C429.548 589.84 456.359 618.289 488.252 637.344C516.282 654.092 548.241 663.587 584.611 660.546C620.978 657.506 661.732 641.934 707.359 608.591C813.628 530.935 843.901 437.006 867.22 364.655C869.385 357.937 871.49 351.405 873.591 345.09C885.959 307.903 898.144 278.291 921.366 262.268C944.568 246.26 978.873 243.768 1035.63 261.081L1035.8 260.535C978.992 243.207 944.465 245.637 921.042 261.798C897.64 277.945 885.408 307.749 873.049 344.909C870.948 351.227 868.842 357.759 866.677 364.476C843.359 436.821 813.136 530.587 707.022 608.13C661.456 641.428 620.8 656.947 584.563 659.977C548.329 663.006 516.488 653.55 488.545 636.854C457.317 618.195 430.96 590.498 408.794 561.089C409.971 561.99 411.157 562.879 412.35 563.756C427.458 579.433 444.107 593.485 462.433 604.435C490.464 621.183 522.422 630.677 558.792 627.637C595.159 624.596 635.913 609.025 681.541 575.682C787.81 498.025 818.083 404.097 841.402 331.746C843.567 325.028 845.672 318.496 847.772 312.18C860.141 274.994 872.326 245.381 895.548 229.359C918.749 213.351 953.055 210.859 1009.81 228.172L1009.98 227.626C953.173 210.298 918.646 212.728 895.223 228.889C871.821 245.035 859.59 274.84 847.23 312C845.129 318.317 843.024 324.85 840.859 331.566C817.54 403.912 787.318 497.677 681.204 575.221C635.637 608.519 594.982 624.038 558.745 627.068C522.51 630.097 490.67 620.64 462.726 603.944C445.365 593.571 429.51 580.405 415.044 565.704C419.509 568.882 424.082 571.882 428.764 574.679C456.794 591.427 488.753 600.922 525.123 597.881C561.49 594.841 602.244 579.269 647.872 545.927C754.14 468.27 784.413 374.341 807.732 301.99C809.897 295.272 812.003 288.741 814.103 282.425C826.471 245.238 838.656 215.626 861.878 199.603C885.08 183.595 919.386 181.103 976.141 198.417L976.308 197.87C919.504 180.542 884.977 182.972 861.554 199.133C838.152 215.28 825.921 245.084 813.561 282.245C811.465 288.546 809.365 295.061 807.206 301.759L807.195 301.795L807.189 301.811C783.871 374.156 753.649 467.922 647.534 545.465C601.968 578.763 561.312 594.283 525.075 597.312C488.841 600.341 457 590.885 429.057 574.189C423.458 570.844 418.016 567.208 412.726 563.324C411.211 561.751 409.712 560.162 408.228 558.558C431.208 568.654 456.579 573.735 484.562 571.396C520.93 568.356 561.683 552.784 607.311 519.441C713.58 441.785 743.853 347.856 767.172 275.505C769.337 268.787 771.442 262.255 773.543 255.939C785.911 218.753 798.096 189.141 821.318 173.118C844.52 157.11 878.825 154.618 935.581 171.931L935.748 171.385C878.943 154.057 844.416 156.487 820.994 172.648C797.591 188.795 785.36 218.599 773.001 255.759C770.899 262.077 768.794 268.609 766.629 275.326C743.311 347.671 713.088 441.436 606.974 518.98C561.408 552.278 520.752 567.797 484.515 570.827C456.147 573.198 430.473 567.917 407.253 557.501C405.202 555.265 403.18 553.001 401.188 550.713C400.104 549.194 399.031 547.673 397.969 546.15C410.796 548.444 424.261 549.155 438.392 547.973C474.759 544.933 515.513 529.361 561.141 496.019C667.409 418.362 697.683 324.433 721.001 252.082C723.167 245.364 725.272 238.832 727.372 232.517C739.74 195.33 751.925 165.718 775.148 149.695C798.349 133.687 832.655 131.195 889.41 148.509L889.577 147.962C832.773 130.634 798.246 133.064 774.823 149.225C751.421 165.372 739.19 195.176 726.83 232.337C724.729 238.654 722.624 245.186 720.459 251.903C697.14 324.248 666.918 418.014 560.804 495.557C515.237 528.855 474.581 544.375 438.344 547.404C424.059 548.598 410.456 547.852 397.506 545.486C393.318 539.465 389.296 533.426 385.435 527.431C386.234 527.376 387.036 527.315 387.839 527.247C424.206 524.207 464.96 508.635 510.588 475.293C616.857 397.636 647.13 303.707 670.449 231.356C672.614 224.638 674.719 218.106 676.819 211.791C689.188 174.604 701.373 144.992 724.595 128.969C747.796 112.961 782.102 110.469 838.858 127.783L839.024 127.236C782.22 109.908 747.693 112.338 724.27 128.499C700.868 144.646 688.637 174.45 676.277 211.611C674.176 217.928 672.071 224.46 669.906 231.177C646.587 303.522 616.365 397.288 510.251 474.831C464.684 508.129 424.029 523.649 387.792 526.678C386.886 526.754 385.983 526.822 385.082 526.882C379.661 518.446 374.557 510.099 369.756 502.01C396.551 494.153 425.469 479.663 456.665 456.866C562.934 379.21 593.207 285.281 616.526 212.93C618.691 206.212 620.797 199.68 622.897 193.365C635.265 156.178 647.45 126.566 670.672 110.543C693.874 94.5349 728.18 92.0431 784.935 109.356L785.102 108.81C728.298 91.4818 693.771 93.912 670.348 110.073C646.946 126.22 634.714 156.024 622.355 193.184C620.254 199.502 618.148 206.034 615.983 212.751C592.665 285.096 562.443 378.861 456.328 456.405C425.12 479.211 396.215 493.677 369.455 501.502C367.507 498.216 365.609 494.973 363.76 491.784L363.266 492.071C365.092 495.219 366.966 498.422 368.889 501.667C367.588 502.043 366.293 502.404 365.002 502.749C354.994 487.714 346.003 472.775 337.942 458.875L337.447 459.161C345.48 473.013 354.442 487.905 364.419 502.904C361.092 503.782 357.799 504.558 354.54 505.233C334.738 479.983 318.131 453.016 304.272 429.119L303.778 429.406C317.595 453.231 334.159 480.137 353.915 505.362C348.905 506.382 343.973 507.167 339.12 507.728C307.807 475.409 283.076 436.024 263.712 402.634L263.218 402.92C282.516 436.198 307.176 475.488 338.404 507.81C336.885 507.979 335.373 508.126 333.869 508.252C329.152 508.646 324.51 508.829 319.941 508.812C275.464 473.819 242.164 421.669 217.541 379.211L217.047 379.498C241.56 421.768 274.724 473.738 319.011 508.805C311.861 508.736 304.891 508.176 298.098 507.171C295.968 506.008 293.86 504.801 291.773 503.555C235.87 470.153 195.579 407.786 166.989 358.485L166.495 358.772C195.083 408.069 235.437 470.56 291.48 504.045C293.126 505.029 294.786 505.987 296.459 506.92C275.238 503.543 255.745 495.82 237.851 485.129C181.948 451.727 141.657 389.36 113.066 340.059L112.572 340.346ZM396.317 552.128C397.558 552.791 398.806 553.44 400.061 554.074C398.22 552.524 396.399 550.945 394.598 549.34C395.167 550.268 395.74 551.197 396.317 552.128ZM393.556 547.638C396.408 550.216 399.31 552.728 402.263 555.166C402.994 555.522 403.727 555.873 404.463 556.219C403.207 554.504 401.964 552.785 400.736 551.064C399.23 549.334 397.741 547.591 396.269 545.836C394.81 545.558 393.359 545.26 391.916 544.941C392.459 545.838 393.005 546.737 393.556 547.638ZM391.143 544.769C391.446 545.269 391.749 545.769 392.054 546.271C391.432 545.701 390.814 545.128 390.197 544.552C390.512 544.625 390.828 544.697 391.143 544.769ZM391.507 544.265C392.893 544.576 394.286 544.869 395.688 545.143C390.903 539.413 386.293 533.558 381.852 527.637L381.677 527.646C384.811 533.048 388.086 538.606 391.507 544.265ZM381.047 527.673L381.036 527.679C384.129 533.013 387.36 538.501 390.733 544.089C390.275 543.984 389.817 543.877 389.361 543.767C383.938 538.659 378.7 533.319 373.642 527.808C376.089 527.821 378.558 527.776 381.047 527.673ZM393.11 548.005C393.837 549.195 394.57 550.389 395.309 551.586C393.013 550.34 390.742 549.045 388.496 547.703C385.129 545.692 381.819 543.575 378.564 541.362C382.019 542.454 385.524 543.431 389.08 544.287C390.412 545.541 391.756 546.781 393.11 548.005ZM409.994 561.285C409.161 560.654 408.332 560.017 407.507 559.373C407.083 558.806 406.662 558.239 406.241 557.671C406.465 557.772 406.688 557.873 406.912 557.974C407.932 559.085 408.96 560.189 409.994 561.285ZM405.792 558.024C405.583 557.742 405.375 557.46 405.167 557.178C404.823 557.019 404.479 556.858 404.136 556.697C404.686 557.142 405.238 557.584 405.792 558.024ZM405.932 556.901C405.801 556.841 405.671 556.781 405.541 556.721C405.215 556.278 404.89 555.835 404.566 555.392C405.02 555.896 405.475 556.399 405.932 556.901ZM397.171 546.006L397.239 546.103L397.154 546.002L397.171 546.006ZM384.783 527.474C388.598 533.404 392.571 539.378 396.707 545.338L396.575 545.313C391.72 539.52 387.044 533.596 382.542 527.604C383.287 527.566 384.034 527.523 384.783 527.474ZM369.19 502.175C373.964 510.221 379.039 518.527 384.43 526.924C383.661 526.973 382.893 527.015 382.128 527.052C376.237 519.187 370.644 511.207 365.337 503.251C366.616 502.907 367.901 502.549 369.19 502.175ZM364.754 503.406C361.448 504.283 358.174 505.058 354.934 505.735C360.719 513.089 366.776 520.295 373.115 527.233C375.863 527.257 378.637 527.208 381.438 527.084C375.585 519.257 370.028 511.318 364.754 503.406ZM372.862 527.802C377.814 533.214 382.939 538.464 388.241 543.494C384.407 542.545 380.632 541.454 376.915 540.229C371.039 536.153 365.347 531.765 359.833 527.121C364.108 527.527 368.451 527.757 372.862 527.802ZM354.309 505.864C360.046 513.167 366.05 520.326 372.334 527.225C367.84 527.164 363.418 526.909 359.065 526.472C352.319 520.744 345.841 514.635 339.622 508.245C344.441 507.675 349.337 506.885 354.309 505.864ZM338.906 508.328C337.234 508.519 335.571 508.683 333.917 508.821C329.435 509.196 325.02 509.38 320.672 509.384C327.26 514.525 334.093 519.289 341.178 523.589C346.684 524.817 352.312 525.752 358.062 526.368C351.419 520.689 345.036 514.644 338.906 508.328ZM358.831 527.022C353.344 526.465 347.968 525.618 342.702 524.505C352.938 530.589 363.696 535.702 375 539.585C369.446 535.657 364.058 531.454 358.831 527.022ZM319.743 509.382C326.077 514.357 332.637 518.985 339.431 523.189C325.356 519.878 312.076 514.654 299.548 507.955C306.115 508.859 312.846 509.347 319.743 509.382ZM516.501 710.575C460.457 677.089 420.103 614.599 391.515 565.302L392.009 565.015C420.599 614.316 460.89 676.683 516.794 710.085C544.737 726.781 576.578 736.237 612.812 733.208C649.049 730.178 689.705 714.659 735.271 681.361C841.385 603.817 871.608 510.052 894.926 437.707C897.091 430.99 899.196 424.458 901.298 418.14C913.657 380.98 925.888 351.176 949.291 335.029C972.713 318.868 1007.24 316.438 1064.04 333.766L1063.88 334.312C1007.12 316.999 972.817 319.491 949.615 335.499C926.393 351.522 914.208 381.134 901.84 418.321C899.739 424.636 897.634 431.168 895.469 437.886C872.15 510.237 841.877 604.166 735.608 681.822C689.98 715.165 649.227 730.737 612.859 733.777C576.489 736.818 544.531 727.323 516.501 710.575ZM396.155 604.256C424.743 653.553 465.097 716.043 521.141 749.529C549.171 766.277 581.129 775.772 617.5 772.731C653.867 769.691 694.621 754.119 740.248 720.777C846.517 643.12 876.79 549.191 900.109 476.84C902.274 470.122 904.379 463.59 906.48 457.275C918.848 420.088 931.033 390.476 954.255 374.453C977.457 358.445 1011.76 355.953 1068.52 373.267L1068.68 372.72C1011.88 355.392 977.354 357.822 953.931 373.983C930.528 390.13 918.297 419.934 905.938 457.095C903.84 463.401 901.739 469.921 899.578 476.626L899.571 476.647L899.567 476.658L899.566 476.661C876.248 549.006 846.025 642.772 739.911 720.315C694.345 753.613 653.689 769.133 617.452 772.162C581.218 775.191 549.377 765.735 521.434 749.039C465.53 715.637 425.239 653.27 396.649 603.969L396.155 604.256ZM521.631 789.289C465.587 755.804 425.234 693.313 396.645 644.016L397.139 643.729C425.73 693.03 466.021 755.397 521.924 788.799C549.867 805.495 581.708 814.951 617.942 811.922C654.179 808.893 694.835 793.373 740.402 760.075C846.516 682.532 876.738 588.767 900.057 516.421C902.222 509.704 904.327 503.172 906.428 496.855C918.788 459.694 931.019 429.89 954.421 413.743C977.844 397.582 1012.37 395.152 1069.18 412.48L1069.01 413.027C1012.25 395.714 977.947 398.205 954.746 414.214C931.524 430.236 919.338 459.848 906.97 497.035C904.87 503.351 902.764 509.882 900.599 516.6C877.281 588.952 847.007 682.88 740.739 760.537C695.111 793.88 654.357 809.451 617.99 812.492C581.62 815.532 549.661 806.037 521.631 789.289ZM394.573 684.212C423.162 733.509 463.515 795.999 519.559 829.485C547.589 846.233 579.548 855.728 615.918 852.687C652.285 849.647 693.039 834.075 738.667 800.732C844.935 723.076 875.209 629.147 898.527 556.796C900.693 550.078 902.798 543.546 904.898 537.231C917.266 500.044 929.451 470.432 952.674 454.409C975.875 438.401 1010.18 435.909 1066.94 453.223L1067.1 452.676C1010.3 435.348 975.772 437.778 952.349 453.939C928.947 470.086 916.716 499.89 904.356 537.05C902.255 543.368 900.15 549.9 897.985 556.617C874.666 628.962 844.444 722.728 738.33 800.271C692.763 833.569 652.107 849.088 615.87 852.118C579.636 855.147 547.795 845.691 519.852 828.995C463.949 795.593 423.658 733.226 395.067 683.925L394.573 684.212ZM516.239 869.878C460.196 836.392 419.842 773.902 391.254 724.605L391.748 724.318C420.338 773.619 460.629 835.986 516.532 869.388C544.476 886.084 576.316 895.54 612.551 892.511C648.788 889.482 689.444 873.962 735.01 840.664C841.124 763.121 871.347 669.355 894.665 597.01C896.83 590.293 898.935 583.761 901.036 577.444C913.396 540.283 925.627 510.479 949.03 494.332C972.452 478.171 1006.98 475.741 1063.78 493.069L1063.62 493.616C1006.86 476.302 972.556 478.794 949.354 494.802C926.132 510.825 913.947 540.437 901.579 577.624C899.478 583.939 897.373 590.471 895.208 597.189C871.889 669.54 841.616 763.469 735.347 841.126C689.719 874.468 648.965 890.04 612.598 893.08C576.228 896.121 544.27 886.626 516.239 869.878ZM387.726 765.025C416.314 814.322 456.668 876.812 512.712 910.298C540.742 927.046 572.701 936.541 609.071 933.5C645.438 930.46 686.192 914.888 731.82 881.545C838.088 803.889 868.361 709.96 891.68 637.609C893.845 630.891 895.951 624.359 898.051 618.044C910.419 580.857 922.604 551.245 945.826 535.222C969.028 519.214 1003.33 516.722 1060.09 534.035L1060.26 533.489C1003.45 516.161 968.925 518.591 945.502 534.752C922.1 550.899 909.869 580.703 897.509 617.863C895.412 624.167 893.312 630.684 891.152 637.385L891.145 637.406L891.142 637.417L891.139 637.424L891.138 637.428L891.137 637.43C867.819 709.775 837.597 803.54 731.482 881.084C685.916 914.382 645.26 929.901 609.023 932.931C572.789 935.96 540.948 926.503 513.005 909.808C457.102 876.406 416.811 814.039 388.22 764.738L387.726 765.025ZM509.752 950.637C453.708 917.151 413.354 854.661 384.766 805.363L385.26 805.077C413.85 854.378 454.141 916.745 510.045 950.147C537.988 966.842 569.829 976.299 606.063 973.27C642.3 970.24 682.956 954.721 728.522 921.423C834.636 843.879 864.859 750.114 888.177 677.769C890.342 671.052 892.447 664.52 894.549 658.202C906.908 621.042 919.139 591.238 942.542 575.091C965.964 558.93 1000.49 556.5 1057.3 573.828L1057.13 574.374C1000.37 557.061 966.068 559.553 942.866 575.561C919.644 591.584 907.459 621.196 895.091 658.383C892.99 664.698 890.885 671.23 888.72 677.948C865.401 750.299 835.128 844.228 728.859 921.884C683.231 955.227 642.478 970.799 606.11 973.839C569.74 976.88 537.782 967.385 509.752 950.637ZM382.948 845.518C411.536 894.816 451.89 957.306 507.933 990.792C535.964 1007.54 567.922 1017.03 604.292 1013.99C640.659 1010.95 681.413 995.382 727.041 962.039C833.31 884.383 863.583 790.454 886.902 718.103C889.067 711.385 891.172 704.853 893.273 698.537C905.641 661.351 917.826 631.738 941.048 615.716C964.249 599.708 998.555 597.216 1055.31 614.529L1055.48 613.983C998.673 596.655 964.146 599.085 940.723 615.246C917.321 631.392 905.09 661.197 892.73 698.357C890.631 704.669 888.527 711.196 886.364 717.906L886.361 717.917L886.359 717.922L886.359 717.924C863.04 790.269 832.818 884.034 726.704 961.578C681.137 994.876 640.482 1010.4 604.245 1013.42C568.01 1016.45 536.17 1007 508.226 990.301C452.323 956.9 412.032 894.533 383.442 845.232L382.948 845.518ZM507.658 1030.68C451.614 997.199 411.26 934.708 382.672 885.411L383.166 885.125C411.757 934.425 452.048 996.792 507.951 1030.19C535.894 1046.89 567.735 1056.35 603.969 1053.32C640.206 1050.29 680.862 1034.77 726.428 1001.47C832.543 923.927 862.765 830.162 886.083 757.816C888.248 751.1 890.354 744.567 892.455 738.25C904.815 701.089 917.046 671.285 940.448 655.139C963.871 638.978 998.398 636.547 1055.2 653.876L1055.04 654.422C998.28 637.109 963.974 639.601 940.772 655.609C917.55 671.631 905.365 701.244 892.997 738.43C890.897 744.746 888.791 751.278 886.626 757.996C863.307 830.347 833.034 924.275 726.766 1001.93C681.138 1035.27 640.384 1050.85 604.017 1053.89C567.647 1056.93 535.688 1047.43 507.658 1030.68ZM384.209 924.981C412.797 974.278 453.151 1036.77 509.195 1070.25C537.225 1087 569.184 1096.5 605.554 1093.46C641.921 1090.42 682.675 1074.84 728.303 1041.5C834.571 963.845 864.845 869.916 888.163 797.565C890.328 790.847 892.434 784.315 894.534 778C906.902 740.813 919.087 711.201 942.31 695.178C965.511 679.17 999.817 676.678 1056.57 693.992L1056.74 693.445C999.935 676.117 965.408 678.547 941.985 694.708C918.583 710.855 906.352 740.659 893.992 777.82C891.891 784.137 889.785 790.669 887.621 797.386C864.302 869.731 834.08 963.497 727.966 1041.04C682.399 1074.34 641.743 1089.86 605.506 1092.89C569.272 1095.92 537.431 1086.46 509.488 1069.76C453.585 1036.36 413.294 973.995 384.703 924.694L384.209 924.981Z" fill="url(#paint0_radial_1350_20)" fill-opacity="0.58"/>
<rect x="906" y="450" width="67" height="67" rx="10" fill="#252525"/>
<rect x="443" y="944" width="67" height="67" rx="10" fill="#1C4F9D"/>
<rect x="505" y="899" width="52" height="52" rx="10" fill="#123974"/>
<rect x="861" y="517" width="45" height="45" rx="10" fill="white"/>
<defs>
<radialGradient id="paint0_radial_1350_20" cx="0" cy="0" r="1" gradientUnits="userSpaceOnUse" gradientTransform="translate(630.907 660.347) rotate(-3.72464) scale(473.22 483.987)">
<stop stop-color="white"/>
<stop offset="1" stop-color="#1E1E1E" stop-opacity="0"/>
<stop offset="1" stop-color="#0E0E35" stop-opacity="0"/>
<stop offset="1" stop-color="white" stop-opacity="0"/>
</radialGradient>
</defs>
</svg>
