<svg width="515" height="534" viewBox="0 0 515 534" fill="none" xmlns="http://www.w3.org/2000/svg">
<rect x="-0.5" y="0.5" width="450" height="492" rx="9.5" transform="matrix(-1 0 0 1 450 23)" stroke="#B7B7B7"/>
<rect x="-0.5" y="0.5" width="450" height="492" rx="9.5" transform="matrix(-1 0 0 1 461 17)" stroke="#B7B7B7"/>
<rect x="-0.5" y="0.5" width="449" height="492" rx="9.5" transform="matrix(-1 0 0 1 478 0)" stroke="black"/>
<rect width="48" height="48" rx="10" transform="matrix(-1 0 0 1 73 445)" fill="#2575ED"/>
<rect width="32" height="31" rx="10" transform="matrix(-1 0 0 1 32 493)" fill="#2B2B2B"/>
<rect width="53" height="51" rx="10" transform="matrix(-1 0 0 1 73 70)" fill="#2B2B2B"/>
<rect width="26" height="25" rx="10" transform="matrix(-1 0 0 1 419 509)" fill="#D5D5D5"/>
<rect x="448" y="441" width="67" height="67" rx="10" fill="#2575ED"/>
</svg>
