<svg width="38" height="37" viewBox="0 0 38 37" fill="none" xmlns="http://www.w3.org/2000/svg">
<path d="M8.20833 15.4166C6.5125 15.4166 5.125 16.8041 5.125 18.5C5.125 20.1958 6.5125 21.5833 8.20833 21.5833C9.90417 21.5833 11.2917 20.1958 11.2917 18.5C11.2917 16.8041 9.90417 15.4166 8.20833 15.4166Z" stroke="#292D32" stroke-width="1.5"/>
<path d="M29.7917 15.4166C28.0959 15.4166 26.7084 16.8041 26.7084 18.5C26.7084 20.1958 28.0959 21.5833 29.7917 21.5833C31.4875 21.5833 32.875 20.1958 32.875 18.5C32.875 16.8041 31.4875 15.4166 29.7917 15.4166Z" stroke="#292D32" stroke-width="1.5"/>
<path d="M19 15.4166C17.3041 15.4166 15.9166 16.8041 15.9166 18.5C15.9166 20.1958 17.3041 21.5833 19 21.5833C20.6958 21.5833 22.0833 20.1958 22.0833 18.5C22.0833 16.8041 20.6958 15.4166 19 15.4166Z" stroke="#292D32" stroke-width="1.5"/>
</svg>
