<svg width="184" height="234" viewBox="0 0 184 234" fill="none" xmlns="http://www.w3.org/2000/svg">
<g filter="url(#filter0_d_6_96)">
<rect x="25" y="11" width="146" height="196" rx="10" fill="white"/>
<g clip-path="url(#clip0_6_96)">
<rect x="31.933" y="20.4609" width="132.134" height="79.1173" fill="#C1DAFF"/>
<path d="M46.829 87.2933H45.4938L45.0417 89.7402H44.0363L44.4885 87.2933H43.1108V86.3465H44.6693L45.0151 84.4793H43.5629V83.5272H45.196L45.6587 81.043H46.6588L46.1907 83.5272H47.5365L48.0046 81.043H48.9993L48.5365 83.5272H49.776V84.4793H48.3557L48.0099 86.3465H49.3291V87.2933H47.8291L47.3769 89.7402H46.3769L46.829 87.2933ZM45.6747 86.3465H47.0099L47.3556 84.4793H46.0205L45.6747 86.3465ZM51.5091 90.0381C51.5091 89.5842 51.5055 89.1232 51.4984 88.6551C51.4949 88.1834 51.4825 87.7189 51.4612 87.2614C51.4399 86.8004 51.408 86.3482 51.3655 85.9049C51.3264 85.4617 51.2697 85.0397 51.1952 84.6389C51.1243 84.2346 51.0339 83.8552 50.9239 83.5006C50.8176 83.1459 50.6863 82.825 50.5303 82.5378L51.6527 81.8462C51.8158 82.098 51.9506 82.3711 52.057 82.6654C52.1669 82.9562 52.2609 83.2647 52.3389 83.591C52.4169 83.9137 52.4825 84.2524 52.5357 84.607C52.5889 84.9581 52.6403 85.3163 52.69 85.6815C52.7254 85.9581 52.7538 86.2596 52.7751 86.5858C52.7964 86.9085 52.8123 87.2383 52.823 87.5752C52.8372 87.9086 52.846 88.2384 52.8496 88.5646C52.8531 88.8909 52.8549 89.1959 52.8549 89.4796V90.0381H51.5091ZM57.7413 86.1496C57.4505 86.1496 57.165 86.1159 56.8849 86.0486C56.6082 85.9812 56.3529 85.873 56.1189 85.7241C56.2182 86.5504 56.2784 87.3146 56.2997 88.0167C56.3245 88.7154 56.337 89.3696 56.337 89.9796H54.9911C54.9911 89.2739 54.977 88.5753 54.9486 87.8838C54.9238 87.1887 54.867 86.522 54.7784 85.8837C54.6897 85.2453 54.562 84.646 54.3954 84.0857C54.2322 83.5254 54.0124 83.0271 53.7358 82.591L54.8688 81.8782C54.9858 82.0732 55.094 82.2647 55.1933 82.4526C55.2961 82.6406 55.3883 82.8321 55.4699 83.0271C55.5692 82.8356 55.6898 82.6654 55.8316 82.5165C55.9735 82.364 56.1295 82.2346 56.2997 82.1282C56.4735 82.0218 56.6579 81.9384 56.8529 81.8782C57.048 81.8179 57.2501 81.7824 57.4594 81.7718C57.4948 81.7718 57.5321 81.7718 57.5711 81.7718C57.7058 81.7718 57.8565 81.7824 58.0232 81.8037C58.1934 81.825 58.3707 81.8693 58.5552 81.9367C58.7431 82.0005 58.9204 82.0874 59.0871 82.1973C59.2538 82.3072 59.3974 82.4438 59.518 82.6069L58.7573 83.5538L58.6509 83.4846C58.58 83.4385 58.486 83.3889 58.369 83.3357C58.2555 83.2825 58.1243 83.2328 57.9753 83.1867C57.8299 83.1406 57.681 83.1158 57.5285 83.1123C57.3973 83.13 57.259 83.169 57.1136 83.2293C56.9682 83.2896 56.8352 83.3658 56.7146 83.458C56.5941 83.5467 56.4965 83.6477 56.4221 83.7612C56.3582 83.857 56.3263 83.9563 56.3263 84.0591C56.3263 84.0768 56.3281 84.0963 56.3316 84.1176V84.1123C56.3565 84.2435 56.4167 84.3552 56.5125 84.4474C56.6082 84.5361 56.7217 84.6088 56.8529 84.6655C56.9877 84.7223 57.1313 84.763 57.2838 84.7879C57.4363 84.8127 57.5817 84.8251 57.72 84.8251C57.8512 84.8251 57.9877 84.8127 58.1296 84.7879C58.275 84.7595 58.4168 84.724 58.5552 84.6815C58.697 84.6389 58.8335 84.5893 58.9647 84.5325C59.0995 84.4722 59.2201 84.4102 59.3265 84.3464L59.9169 85.4475C59.5517 85.717 59.1864 85.9014 58.8211 86.0007C58.4559 86.1 58.0959 86.1496 57.7413 86.1496Z" fill="black"/>
<path fill-rule="evenodd" clip-rule="evenodd" d="M-75.8846 27.7911C-68.2926 29.029 -57.8726 30.388 -46.6966 29.0961C-45.9947 29.015 -45.2905 28.9235 -44.5846 28.821C-42.4724 28.7881 -40.3109 28.6779 -38.1162 28.4691C-36.4853 28.5073 -34.8174 28.5042 -33.1207 28.4493C-32.2902 28.5088 -31.4468 28.5596 -30.5915 28.6C-29.3643 28.7599 -28.0914 28.9096 -26.7784 29.0416L-27.0938 29.3821C-19.5017 30.6201 -9.0818 31.979 2.09427 30.6872C13.3317 29.3883 25.159 25.4327 35.613 16.2198C47.7975 5.48173 46.8005 -1.82897 46.0397 -7.40764L46.0396 -7.40809L46.0392 -7.41115L46.0388 -7.4139C45.9687 -7.92835 45.9006 -8.42806 45.845 -8.91437C45.516 -11.7961 45.646 -14.1317 48.2224 -16.3003C50.795 -18.4657 55.9033 -20.5394 65.9184 -22.7782L65.3946 -23.434C55.2537 -21.1671 49.7421 -18.9962 46.8985 -16.6027C44.0586 -14.2123 43.9758 -11.6746 44.3048 -8.79332C44.3608 -8.30234 44.4293 -7.79919 44.4997 -7.28239C45.2557 -1.73049 46.2263 5.397 34.2725 15.9317C23.9972 24.9871 12.5425 28.7462 1.89242 29.9772C-6.53407 30.9513 -14.5654 30.3571 -21.2882 29.4592C-16.8284 29.6835 -12.0433 29.6296 -7.11092 29.0595C4.12646 27.7606 15.9538 23.805 26.4078 14.5921C38.5923 3.85405 37.5953 -3.45664 36.8345 -9.03532L36.8343 -9.03663C36.7639 -9.55282 36.6956 -10.0542 36.6398 -10.542C36.3108 -13.4238 36.4408 -15.7594 39.0172 -17.928C41.5899 -20.0934 46.6981 -22.1671 56.7132 -24.4058L56.1894 -25.0616C46.0485 -22.7947 40.5369 -20.6238 37.6933 -18.2303C34.8534 -15.84 34.7706 -13.3023 35.0996 -10.421C35.1556 -9.93001 35.2241 -9.42687 35.2945 -8.91006C36.0505 -3.35817 37.0211 3.76933 25.0673 14.304C14.792 23.3595 3.33726 27.1185 -7.31277 28.3496C-12.6306 28.9642 -17.7909 28.9544 -22.5644 28.6378C-20.6457 28.5598 -18.6918 28.4142 -16.7143 28.1857C-5.47692 26.8867 6.35046 22.9312 16.8044 13.7182C28.989 2.9802 27.9919 -4.33049 27.2311 -9.90917L27.2309 -9.91048C27.1605 -10.4267 27.0922 -10.928 27.0365 -11.4159C26.7074 -14.2976 26.8374 -16.6332 29.4138 -18.8018C31.9865 -20.9672 37.0947 -23.0409 47.1098 -25.2797L46.586 -25.9355C36.4451 -23.6686 30.9335 -21.4977 28.0899 -19.1042C25.25 -16.7139 25.1672 -14.1761 25.4962 -11.2948C25.5522 -10.8039 25.6207 -10.3007 25.6911 -9.78391C26.4471 -4.23202 27.4177 2.89548 15.4639 13.4301C5.18862 22.4856 -6.26613 26.2447 -16.9162 27.4757C-20.223 27.858 -23.469 27.9987 -26.599 27.9743L-26.5776 27.9719C-15.3402 26.6729 -3.51282 22.7173 6.94114 13.5044C19.1257 2.76639 18.1286 -4.5443 17.3678 -10.123L17.3675 -10.1252L17.3675 -10.1254C17.2972 -10.6412 17.2289 -11.1422 17.1732 -11.6297C16.8442 -14.5114 16.9741 -16.847 19.5505 -19.0156C22.1232 -21.181 27.2314 -23.2547 37.2465 -25.4935L36.7227 -26.1493C26.5818 -23.8824 21.0702 -21.7115 18.2266 -19.318C15.3868 -16.9277 15.3039 -14.39 15.6329 -11.5086C15.689 -11.0177 15.7575 -10.5145 15.8278 -9.99772C16.5838 -4.44583 17.5544 2.68167 5.60064 13.2163C-4.67466 22.2718 -16.1294 26.0309 -26.7794 27.2619C-28.4392 27.4538 -30.0837 27.5848 -31.7058 27.6646C-31.7984 27.6515 -31.8908 27.6383 -31.9829 27.6251C-22.1665 25.8369 -12.109 21.8015 -3.07676 13.8416C9.10777 3.10353 8.11074 -4.20716 7.34994 -9.78584L7.34987 -9.78629C7.27943 -10.3028 7.21103 -10.8044 7.15529 -11.2926C6.82625 -14.1743 6.95621 -16.5099 9.53265 -18.6785C12.1053 -20.8439 17.2135 -22.9176 27.2286 -25.1564L26.7048 -25.8122C16.5639 -23.5453 11.0524 -21.3744 8.20871 -18.9809C5.36886 -16.5905 5.28603 -14.0528 5.615 -11.1715C5.67103 -10.6808 5.7395 -10.1778 5.80985 -9.66129L5.80994 -9.66058C6.56596 -4.10869 7.53651 3.01881 -4.41726 13.5535C-13.9057 21.9155 -24.3999 25.7612 -34.3375 27.2705C-34.7847 27.2003 -35.2241 27.1298 -35.6553 27.0595L-36.008 27.4403C-36.3909 27.4015 -36.7706 27.361 -37.1469 27.3193C-28.9338 25.1653 -20.7002 21.2581 -13.1778 14.6287C-0.993288 3.89066 -1.99032 -3.42003 -2.75113 -8.9987L-2.7512 -8.99915C-2.82164 -9.51566 -2.89004 -10.0173 -2.94579 -10.5054C-3.27481 -13.3872 -3.14486 -15.7227 -0.568433 -17.8914C2.00422 -20.0568 7.11246 -22.1304 17.1276 -24.3692L16.6037 -25.025C6.46284 -22.7581 0.951276 -20.5872 -1.89235 -18.1937C-4.7322 -15.8034 -4.81505 -13.2657 -4.48608 -10.3844C-4.43009 -9.89418 -4.3617 -9.39184 -4.29146 -8.87589L-4.29113 -8.87346C-3.53511 -3.32155 -2.56455 3.80594 -14.5183 14.3406C-22.3794 21.2685 -30.9308 25.0963 -39.2841 27.0639C-41.4079 26.7927 -43.4086 26.4873 -45.2586 26.1856L-45.9024 26.8806C-44.5294 27.1045 -43.0639 27.3323 -41.5182 27.5477L-41.6541 27.5744C-46.6419 27.262 -51.2174 26.6085 -55.1219 25.9718L-55.7656 26.6668C-52.5508 27.191 -48.8289 27.7369 -44.7572 28.0941C-52.4341 28.187 -59.4896 27.2303 -65.1398 26.3089L-65.7836 27.0039C-61.4951 27.7032 -56.3044 28.4411 -50.5849 28.718C-59.9051 29.3255 -68.5563 28.186 -75.2409 27.0961L-75.8846 27.7911ZM10.7563 33.1071C-0.419729 34.3989 -10.8397 33.04 -18.4317 31.802L-17.788 31.107C-10.2296 32.3395 -0.156855 33.6352 10.5545 32.3971C21.2045 31.1661 32.6593 27.407 42.9346 18.3516C54.8883 7.81689 53.9178 0.689397 53.1618 -4.8625L53.1616 -4.86407C53.0913 -5.38032 53.0228 -5.88295 52.9668 -6.37343C52.6379 -9.25473 52.7207 -11.7924 55.5605 -14.1828C58.4042 -16.5763 63.9157 -18.7472 74.0566 -21.0141L74.5805 -20.3583C64.5654 -18.1195 59.4571 -16.0458 56.8845 -13.8804C54.308 -11.7118 54.1781 -9.37622 54.5071 -6.49447C54.5628 -6.00688 54.6311 -5.50582 54.7015 -4.98995L54.7018 -4.98775C55.4626 0.590928 56.4596 7.90162 44.2751 18.6397C33.8211 27.8526 21.9937 31.8082 10.7563 33.1071ZM-10.412 34.9723C-2.81994 36.2103 7.59999 37.5692 18.7761 36.2774C30.0134 34.9785 41.8408 31.0229 52.2948 21.81C64.4793 11.0719 63.4823 3.76125 62.7215 -1.81743C62.651 -2.33407 62.5826 -2.83587 62.5268 -3.32415C62.1978 -6.20591 62.3277 -8.54147 64.9042 -10.7101C67.4768 -12.8755 72.5851 -14.9492 82.6002 -17.1879L82.0764 -17.8438C71.9354 -15.5769 66.4239 -13.406 63.5803 -11.0124C60.7404 -8.62212 60.6576 -6.08441 60.9865 -3.20311C61.0426 -2.71213 61.1111 -2.20898 61.1815 -1.69217C61.9375 3.85973 62.9081 10.9872 50.9543 21.5219C40.679 30.5773 29.2242 34.3364 18.5742 35.5674C7.86287 36.8056 -2.20992 35.5098 -9.76828 34.2773L-10.412 34.9723ZM26.1456 40.0772C14.9695 41.369 4.54957 40.0101 -3.0425 38.7721L-2.39878 38.0771C5.15959 39.3096 15.2324 40.6053 25.9437 39.3672C36.5937 38.1362 48.0485 34.3771 58.3238 25.3217C70.2776 14.787 69.307 7.6595 68.551 2.1076C68.4806 1.5908 68.4121 1.08765 68.356 0.596676C68.0271 -2.28463 68.1099 -4.82234 70.9498 -7.21266C73.7934 -9.60618 79.305 -11.7771 89.4459 -14.044L89.9697 -13.3882C79.9546 -11.1494 74.8463 -9.07571 72.2737 -6.91029C69.6973 -4.74169 69.5673 -2.40612 69.8963 0.47563C69.9518 0.961512 70.0199 1.46078 70.0899 1.97473L70.09 1.97539L70.0904 1.97803L70.0909 1.98195L70.091 1.98235C70.8518 7.56103 71.8488 14.8717 59.6643 25.6098C49.2103 34.8227 37.383 38.7783 26.1456 40.0772ZM3.76145 43.0435C11.3535 44.2814 21.7734 45.6404 32.9495 44.3485C44.1869 43.0496 56.0143 39.094 66.4682 29.8811C78.6528 19.1431 77.6557 11.8324 76.8949 6.25371L76.8946 6.25151C76.8243 5.73564 76.756 5.23458 76.7003 4.74699C76.3713 1.86524 76.5012 -0.470322 79.0776 -2.63893C81.6503 -4.80435 86.7585 -6.87803 96.7736 -9.1168L96.2498 -9.77261C86.1089 -7.50572 80.5973 -5.33481 77.7537 -2.9413C74.9139 -0.550974 74.831 1.98674 75.16 4.86804C75.216 5.35851 75.2844 5.86114 75.3547 6.37739L75.3549 6.37897C76.1109 11.9309 77.0815 19.0584 65.1277 29.593C54.8524 38.6485 43.3977 42.4076 32.7477 43.6386C22.0363 44.8767 11.9635 43.5809 4.40517 42.3485L3.76145 43.0435ZM39.3296 48.9386C28.1535 50.2305 17.7336 48.8715 10.1415 47.6336L10.7852 46.9386C18.3436 48.171 28.4164 49.4668 39.1277 48.2287C49.7778 46.9976 61.2325 43.2386 71.5078 34.1831C83.4616 23.6484 82.491 16.5209 81.735 10.969C81.6646 10.4522 81.5961 9.94909 81.5401 9.45811C81.2111 6.57681 81.2939 4.03909 84.1338 1.64877C86.9774 -0.744743 92.489 -2.91565 102.63 -5.18254L103.154 -4.52673C93.1386 -2.28796 88.0304 -0.214277 85.4577 1.95115C82.8813 4.11975 82.7513 6.45531 83.0804 9.33706C83.1358 9.82295 83.2039 10.3222 83.274 10.8362L83.2741 10.8368L83.2744 10.8395L83.2749 10.8434L83.275 10.8438C84.0358 16.4225 85.0329 23.7332 72.8483 34.4712C62.3944 43.6841 50.567 47.6397 39.3296 48.9386ZM16.2497 52.4134C23.8417 53.6514 34.2617 55.0103 45.4377 53.7185C56.6751 52.4195 68.5025 48.464 78.9564 39.2511C91.141 28.513 90.144 21.2023 89.3831 15.6236C89.3127 15.107 89.2442 14.6052 89.1885 14.1169C88.8595 11.2352 88.9894 8.89961 91.5658 6.731C94.1385 4.56558 99.2467 2.4919 109.262 0.25313L108.738 -0.402686C98.5971 1.86421 93.0856 4.03511 90.2419 6.42862C87.4021 8.81895 87.3192 11.3567 87.6482 14.238C87.7042 14.7284 87.7726 15.2311 87.8429 15.7473L87.843 15.7475L87.8431 15.7486L87.8432 15.7489C88.5992 21.3008 89.5697 28.4283 77.616 38.963C67.3407 48.0184 55.8859 51.7775 45.2359 53.0085C34.5245 54.2466 24.4517 52.9509 16.8934 51.7184L16.2497 52.4134ZM51.4112 58.5888C40.2351 59.8807 29.8152 58.5217 22.2231 57.2838L22.8668 56.5888C30.4252 57.8212 40.498 59.117 51.2093 57.8789C61.8593 56.6479 73.3141 52.8888 83.5894 43.8333C95.5432 33.2987 94.5726 26.1712 93.8166 20.6193L93.8165 20.619L93.8164 20.6179L93.8164 20.6177C93.7461 20.1015 93.6776 19.5988 93.6216 19.1083C93.2927 16.227 93.3755 13.6893 96.2154 11.299C99.059 8.90549 104.571 6.73459 114.711 4.46769L115.235 5.12351C105.22 7.36228 100.112 9.43596 97.5393 11.6014C94.9628 13.77 94.8329 16.1055 95.1619 18.9873C95.2176 19.4752 95.286 19.9765 95.3564 20.4927L95.3565 20.4931L95.3566 20.494C96.1174 26.0727 97.1144 33.3834 84.9299 44.1214C74.4759 53.3343 62.6485 57.2899 51.4112 58.5888ZM28.1732 62.1686C35.7653 63.4066 46.1852 64.7655 57.3613 63.4737C68.5987 62.1748 80.426 58.2192 90.88 49.0063C103.065 38.2682 102.067 30.9575 101.307 25.3789L101.306 25.3771C101.236 24.8611 101.168 24.3599 101.112 23.8721C100.783 20.9904 100.913 18.6548 103.489 16.4862C106.062 14.3208 111.17 12.2471 121.185 10.0084L120.662 9.35254C110.521 11.6194 105.009 13.7903 102.165 16.1838C99.3256 18.5742 99.2428 21.1119 99.5717 23.9932C99.6277 24.4837 99.6962 24.9863 99.7665 25.5025L99.7665 25.5027L99.7667 25.5039L99.7667 25.5041C100.523 31.056 101.493 38.1835 89.5395 48.7182C79.2642 57.7736 67.8094 61.5327 57.1594 62.7637C46.4481 64.0019 36.3753 62.7061 28.8169 61.4736L28.1732 62.1686ZM63.3739 68.3183C52.1978 69.6102 41.7779 68.2512 34.1858 67.0133L34.8296 66.3183C42.3879 67.5507 52.4607 68.8465 63.1721 67.6084C73.8221 66.3773 85.2768 62.6183 95.5521 53.5628C107.506 43.0281 106.535 35.9006 105.779 30.3487L105.779 30.3476L105.779 30.3465C105.709 29.8305 105.64 29.3281 105.584 28.8378C105.255 25.9565 105.338 23.4188 108.178 21.0285C111.022 18.635 116.533 16.4641 126.674 14.1972L127.198 14.853C117.183 17.0918 112.075 19.1654 109.502 21.3309C106.926 23.4995 106.796 25.835 107.125 28.7168C107.18 29.2051 107.249 29.7068 107.319 30.2235C108.08 35.8022 109.077 43.1129 96.8926 53.8509C86.4387 63.0638 74.6113 67.0194 63.3739 68.3183ZM40.3214 71.7746C47.9135 73.0125 58.3334 74.3715 69.5095 73.0796C80.7469 71.7807 92.5743 67.8251 103.028 58.6122C115.213 47.8742 114.216 40.5635 113.455 34.9848L113.455 34.9835L113.455 34.982C113.384 34.4663 113.316 33.9655 113.26 33.4781C112.931 30.5963 113.061 28.2607 115.638 26.0921C118.21 23.9267 123.319 21.853 133.334 19.6143L132.81 18.9585C122.669 21.2254 117.157 23.3963 114.314 25.7898C111.474 28.1801 111.391 30.7178 111.72 33.5991C111.776 34.0892 111.844 34.5915 111.915 35.1074L111.915 35.1084L111.915 35.1096L111.915 35.11C112.671 40.6619 113.642 47.7894 101.688 58.3241C91.4124 67.3796 79.9577 71.1386 69.3077 72.3697C58.5963 73.6078 48.5235 72.312 40.9652 71.0796L40.3214 71.7746ZM75.8086 77.7268C64.6326 79.0186 54.2126 77.6597 46.6206 76.4217L47.2643 75.7267C54.8227 76.9592 64.8955 78.255 75.6068 77.0168C86.2568 75.7858 97.7116 72.0267 107.987 62.9713C119.941 52.4366 118.97 45.3091 118.214 39.7572L118.214 39.7567L118.214 39.7556C118.144 39.2394 118.075 38.7367 118.019 38.2463C117.69 35.365 117.773 32.8273 120.613 30.4369C123.456 28.0434 128.968 25.8725 139.109 23.6056L139.633 24.2614C129.618 26.5002 124.509 28.5739 121.937 30.7393C119.36 32.9079 119.23 35.2435 119.559 38.1252C119.615 38.6135 119.684 39.1153 119.754 39.632C120.515 45.2106 121.512 52.5213 109.327 63.2594C98.8734 72.4723 87.046 76.4279 75.8086 77.7268ZM53.1095 80.9328C60.7016 82.1708 71.1215 83.5297 82.2976 82.2379C93.535 80.939 105.362 76.9834 115.816 67.7705C128.001 57.0324 127.004 49.7217 126.243 44.1431L126.243 44.1415C126.172 43.6254 126.104 43.1242 126.048 42.6364C125.719 39.7546 125.849 37.419 128.426 35.2504C130.998 33.085 136.107 31.0113 146.122 28.7726L145.598 28.1167C135.457 30.3836 129.945 32.5545 127.102 34.9481C124.262 37.3384 124.179 39.8761 124.508 42.7574C124.564 43.2483 124.633 43.7513 124.703 44.268L124.703 44.2683C125.459 49.8202 126.43 56.9477 114.476 67.4824C104.201 76.5378 92.7458 80.2969 82.0957 81.528C71.3844 82.7661 61.3116 81.4703 53.7532 80.2378L53.1095 80.9328Z" fill="url(#paint0_radial_6_96)" fill-opacity="0.3"/>
</g>
<path d="M109.68 118.578C109.352 118.578 109.068 118.53 108.828 118.434C108.596 118.33 108.404 118.194 108.252 118.026C108.108 117.858 108 117.662 107.928 117.438C107.864 117.214 107.832 116.978 107.832 116.73V115.074H108.816V116.49C108.816 116.802 108.892 117.054 109.044 117.246C109.196 117.43 109.484 117.522 109.908 117.522H113.844C114.46 117.522 114.768 117.23 114.768 116.646V115.11H115.752V116.838C115.752 117.126 115.704 117.378 115.608 117.594C115.512 117.81 115.38 117.99 115.212 118.134C115.052 118.278 114.864 118.39 114.648 118.47C114.44 118.542 114.22 118.578 113.988 118.578H109.68ZM112.368 120.978H111.192V119.946H112.368V120.978ZM118.843 118.578C118.627 118.578 118.419 118.55 118.219 118.494C118.019 118.43 117.843 118.326 117.691 118.182C117.547 118.038 117.431 117.85 117.343 117.618C117.255 117.378 117.211 117.082 117.211 116.73V111.138H118.195V116.514C118.195 116.818 118.259 117.062 118.387 117.246C118.523 117.43 118.735 117.522 119.023 117.522H119.263C119.439 117.522 119.527 117.694 119.527 118.038C119.527 118.398 119.439 118.578 119.263 118.578H118.843ZM119.746 117.522C120.378 117.522 120.694 117.23 120.694 116.646V115.11H121.678V116.646C121.678 116.806 121.706 116.942 121.762 117.054C121.818 117.166 121.89 117.258 121.978 117.33C122.066 117.394 122.166 117.442 122.278 117.474C122.398 117.506 122.518 117.522 122.638 117.522C123.326 117.522 123.67 117.23 123.67 116.646V115.11H124.654V116.646C124.654 116.974 124.738 117.202 124.906 117.33C125.082 117.458 125.286 117.522 125.518 117.522C125.798 117.522 126.014 117.446 126.166 117.294C126.326 117.142 126.406 116.926 126.406 116.646V115.11H127.39V116.646C127.39 116.806 127.414 116.942 127.462 117.054C127.518 117.166 127.59 117.258 127.678 117.33C127.766 117.394 127.866 117.442 127.978 117.474C128.09 117.506 128.202 117.522 128.314 117.522H128.566C128.742 117.522 128.83 117.694 128.83 118.038C128.83 118.398 128.742 118.578 128.566 118.578H128.314C128.018 118.578 127.742 118.526 127.486 118.422C127.238 118.318 127.03 118.114 126.862 117.81C126.678 118.114 126.462 118.318 126.214 118.422C125.974 118.526 125.742 118.578 125.518 118.578C125.238 118.578 124.978 118.526 124.738 118.422C124.498 118.318 124.294 118.114 124.126 117.81C123.942 118.114 123.718 118.318 123.454 118.422C123.19 118.526 122.918 118.578 122.638 118.578C122.334 118.578 122.05 118.526 121.786 118.422C121.53 118.318 121.318 118.114 121.15 117.81C120.966 118.114 120.75 118.318 120.502 118.422C120.254 118.526 119.99 118.578 119.71 118.578H119.266C119.162 118.578 119.094 118.538 119.062 118.458C119.022 118.37 119.002 118.242 119.002 118.074C119.002 117.882 119.022 117.742 119.062 117.654C119.094 117.566 119.162 117.522 119.266 117.522H119.746ZM132.027 117.882C131.819 118.01 131.615 118.118 131.415 118.206C131.215 118.294 130.999 118.366 130.767 118.422C130.543 118.478 130.295 118.518 130.023 118.542C129.751 118.566 129.439 118.578 129.087 118.578H128.571C128.467 118.578 128.399 118.538 128.367 118.458C128.327 118.37 128.307 118.242 128.307 118.074C128.307 117.882 128.327 117.742 128.367 117.654C128.399 117.566 128.467 117.522 128.571 117.522H129.123C129.427 117.522 129.695 117.514 129.927 117.498C130.167 117.482 130.387 117.454 130.587 117.414C130.787 117.374 130.975 117.322 131.151 117.258C131.327 117.186 131.507 117.098 131.691 116.994L133.479 115.962C133.415 115.818 133.351 115.694 133.287 115.59C133.231 115.478 133.155 115.382 133.059 115.302C132.963 115.222 132.847 115.162 132.711 115.122C132.575 115.082 132.403 115.062 132.195 115.062H129.579L129.651 114.006H132.339C132.555 114.006 132.771 114.034 132.987 114.09C133.211 114.146 133.419 114.258 133.611 114.426C133.811 114.594 133.995 114.834 134.163 115.146C134.331 115.458 134.471 115.87 134.583 116.382L132.027 117.882ZM139.399 118.578C139.071 118.578 138.787 118.53 138.547 118.434C138.315 118.33 138.123 118.194 137.971 118.026C137.827 117.858 137.719 117.662 137.647 117.438C137.583 117.214 137.551 116.978 137.551 116.73V115.074H138.535V116.49C138.535 116.802 138.611 117.054 138.763 117.246C138.915 117.43 139.203 117.522 139.627 117.522H143.563C144.179 117.522 144.487 117.23 144.487 116.646V115.11H145.471V116.838C145.471 117.126 145.423 117.378 145.327 117.594C145.231 117.81 145.099 117.99 144.931 118.134C144.771 118.278 144.583 118.39 144.367 118.47C144.159 118.542 143.939 118.578 143.707 118.578H139.399ZM142.855 114.09H141.763V113.082H142.855V114.09ZM141.247 114.09H140.155V113.082H141.247V114.09ZM148.262 118.386C148.262 118.834 148.186 119.246 148.034 119.622C147.89 120.006 147.69 120.334 147.434 120.606C147.178 120.886 146.874 121.102 146.522 121.254C146.17 121.406 145.79 121.482 145.382 121.482H144.65L144.59 120.438H145.142C145.526 120.438 145.854 120.378 146.126 120.258C146.39 120.146 146.606 119.994 146.774 119.802C146.95 119.61 147.078 119.39 147.158 119.142C147.238 118.902 147.278 118.65 147.278 118.386V115.11H148.262V118.386ZM150.666 120.438C150.994 120.438 151.282 120.386 151.53 120.282C151.778 120.186 151.982 120.054 152.142 119.886C152.31 119.718 152.438 119.522 152.526 119.298C152.614 119.074 152.666 118.834 152.682 118.578H151.662C151.254 118.578 150.918 118.534 150.654 118.446C150.39 118.358 150.182 118.23 150.03 118.062C149.878 117.894 149.77 117.69 149.706 117.45C149.65 117.202 149.622 116.926 149.622 116.622C149.622 116.318 149.666 116.03 149.754 115.758C149.842 115.478 149.97 115.234 150.138 115.026C150.306 114.818 150.514 114.654 150.762 114.534C151.018 114.406 151.314 114.342 151.65 114.342C151.914 114.342 152.166 114.386 152.406 114.474C152.654 114.562 152.87 114.702 153.054 114.894C153.238 115.078 153.382 115.322 153.486 115.626C153.598 115.93 153.654 116.298 153.654 116.73V117.522H154.722C154.818 117.522 154.882 117.566 154.914 117.654C154.954 117.734 154.974 117.862 154.974 118.038C154.974 118.222 154.954 118.358 154.914 118.446C154.882 118.534 154.818 118.578 154.722 118.578H153.63C153.614 118.97 153.534 119.342 153.39 119.694C153.254 120.046 153.062 120.354 152.814 120.618C152.566 120.882 152.266 121.09 151.914 121.242C151.562 121.402 151.17 121.482 150.738 121.482H149.49L149.418 120.438H150.666ZM150.558 116.562C150.558 116.906 150.638 117.154 150.798 117.306C150.966 117.45 151.286 117.522 151.758 117.522H152.706V116.778C152.706 116.274 152.606 115.914 152.406 115.698C152.214 115.474 151.942 115.362 151.59 115.362C151.262 115.362 151.006 115.47 150.822 115.686C150.646 115.894 150.558 116.186 150.558 116.562ZM157.859 117.498C158.203 116.882 158.527 116.358 158.831 115.926C159.135 115.486 159.431 115.13 159.719 114.858C160.007 114.578 160.287 114.374 160.559 114.246C160.831 114.118 161.107 114.054 161.387 114.054C161.699 114.054 161.983 114.114 162.239 114.234C162.503 114.354 162.723 114.518 162.899 114.726C163.083 114.934 163.223 115.178 163.319 115.458C163.423 115.738 163.475 116.038 163.475 116.358C163.475 116.63 163.431 116.898 163.343 117.162C163.263 117.426 163.131 117.666 162.947 117.882C162.771 118.09 162.547 118.258 162.275 118.386C162.003 118.514 161.683 118.578 161.315 118.578H158.027C157.723 118.578 157.439 118.526 157.175 118.422C156.919 118.318 156.707 118.114 156.539 117.81C156.355 118.114 156.139 118.318 155.891 118.422C155.643 118.526 155.379 118.578 155.099 118.578H154.727C154.623 118.578 154.555 118.538 154.523 118.458C154.483 118.37 154.463 118.242 154.463 118.074C154.463 117.882 154.483 117.742 154.523 117.654C154.555 117.566 154.623 117.522 154.727 117.522H155.123C155.763 117.522 156.083 117.23 156.083 116.646V115.11H157.067V116.646C157.067 116.902 157.139 117.102 157.283 117.246C157.435 117.382 157.627 117.466 157.859 117.498ZM162.479 116.358C162.479 116.19 162.451 116.03 162.395 115.878C162.339 115.726 162.259 115.594 162.155 115.482C162.059 115.37 161.939 115.282 161.795 115.218C161.651 115.146 161.491 115.11 161.315 115.11C160.955 115.11 160.575 115.298 160.175 115.674C159.783 116.05 159.335 116.666 158.831 117.522H161.351C161.655 117.522 161.919 117.43 162.143 117.246C162.367 117.054 162.479 116.758 162.479 116.358Z" fill="#474747"/>
<rect x="115.129" y="135.55" width="48.9385" height="8.15642" rx="4.07821" fill="#D9D9D9"/>
<rect x="68.6368" y="152.679" width="95.4302" height="8.15642" rx="4.07821" fill="#E3E3E3"/>
<rect x="31.933" y="169.807" width="132.134" height="27.7318" rx="5" fill="#CFE2FF"/>
</g>
<defs>
<filter id="filter0_d_6_96" x="0.170068" y="0.0748296" width="183.741" height="233.741" filterUnits="userSpaceOnUse" color-interpolation-filters="sRGB">
<feFlood flood-opacity="0" result="BackgroundImageFix"/>
<feColorMatrix in="SourceAlpha" type="matrix" values="0 0 0 0 0 0 0 0 0 0 0 0 0 0 0 0 0 0 127 0" result="hardAlpha"/>
<feOffset dx="-5.95918" dy="7.94558"/>
<feGaussianBlur stdDeviation="9.43537"/>
<feColorMatrix type="matrix" values="0 0 0 0 0 0 0 0 0 0 0 0 0 0 0 0 0 0 0.17 0"/>
<feBlend mode="normal" in2="BackgroundImageFix" result="effect1_dropShadow_6_96"/>
<feBlend mode="normal" in="SourceGraphic" in2="effect1_dropShadow_6_96" result="shape"/>
</filter>
<radialGradient id="paint0_radial_6_96" cx="0" cy="0" r="1" gradientUnits="userSpaceOnUse" gradientTransform="translate(53.1884 33.2185) rotate(-59.1796) scale(57.3779 87.3412)">
<stop stop-color="white"/>
<stop offset="1" stop-color="#1E1E1E" stop-opacity="0"/>
<stop offset="1" stop-color="#0E0E35" stop-opacity="0"/>
<stop offset="1" stop-color="white" stop-opacity="0"/>
</radialGradient>
<clipPath id="clip0_6_96">
<rect x="31.933" y="20.4609" width="132.134" height="79.1173" rx="5" fill="white"/>
</clipPath>
</defs>
</svg>
