<svg width="37" height="37" viewBox="0 0 37 37" fill="none" xmlns="http://www.w3.org/2000/svg">
<path d="M27.75 11.0383C27.6575 11.0228 27.5496 11.0228 27.4571 11.0383C25.3296 10.9612 23.6338 9.21909 23.6338 7.06075C23.6338 4.85617 25.4067 3.08325 27.6113 3.08325C29.8159 3.08325 31.5888 4.87159 31.5888 7.06075C31.5734 9.21909 29.8775 10.9612 27.75 11.0383Z" stroke="#292D32" stroke-width="2" stroke-linecap="round" stroke-linejoin="round"/>
<path d="M26.1621 22.2616C28.2742 22.6162 30.6021 22.2462 32.2363 21.1516C34.41 19.7024 34.41 17.3283 32.2363 15.8791C30.5867 14.7845 28.2279 14.4145 26.1158 14.7845" stroke="#292D32" stroke-width="2" stroke-linecap="round" stroke-linejoin="round"/>
<path d="M9.20374 11.0383C9.29624 11.0228 9.40416 11.0228 9.49666 11.0383C11.6242 10.9612 13.32 9.21909 13.32 7.06075C13.32 4.85617 11.5471 3.08325 9.34249 3.08325C7.13791 3.08325 5.36499 4.87159 5.36499 7.06075C5.38041 9.21909 7.07624 10.9612 9.20374 11.0383Z" stroke="#292D32" stroke-width="2" stroke-linecap="round" stroke-linejoin="round"/>
<path d="M10.7916 22.2616C8.67955 22.6162 6.35164 22.2462 4.71747 21.1516C2.54372 19.7024 2.54372 17.3283 4.71747 15.8791C6.36705 14.7845 8.7258 14.4145 10.8379 14.7845" stroke="#292D32" stroke-width="2" stroke-linecap="round" stroke-linejoin="round"/>
<path d="M18.5 22.5546C18.4075 22.5392 18.2996 22.5392 18.2071 22.5546C16.0796 22.4775 14.3838 20.7354 14.3838 18.5771C14.3838 16.3725 16.1567 14.5996 18.3613 14.5996C20.5659 14.5996 22.3388 16.3879 22.3388 18.5771C22.3234 20.7354 20.6275 22.4929 18.5 22.5546Z" stroke="#292D32" stroke-width="2" stroke-linecap="round" stroke-linejoin="round"/>
<path d="M14.0137 27.4109C11.84 28.8601 11.84 31.2343 14.0137 32.6834C16.4804 34.333 20.5196 34.333 22.9862 32.6834C25.16 31.2343 25.16 28.8601 22.9862 27.4109C20.535 25.7768 16.4804 25.7768 14.0137 27.4109Z" stroke="#292D32" stroke-width="2" stroke-linecap="round" stroke-linejoin="round"/>
</svg>
