<svg width="38" height="37" viewBox="0 0 38 37" fill="none" xmlns="http://www.w3.org/2000/svg">
<path d="M27.5254 11.9787C27.4174 11.9633 27.3095 11.9633 27.2016 11.9787C24.812 11.9016 22.9158 9.94373 22.9158 7.53873C22.9158 5.08748 24.9045 3.08331 27.3712 3.08331C29.8224 3.08331 31.8266 5.07206 31.8266 7.53873C31.8112 9.94373 29.9149 11.9016 27.5254 11.9787Z" fill="white"/>
<path d="M32.5513 22.6625C30.8246 23.8188 28.4042 24.2504 26.1688 23.9575C26.7546 22.6933 27.0629 21.2904 27.0783 19.8104C27.0783 18.2688 26.7392 16.8042 26.0917 15.5246C28.3733 15.2163 30.7938 15.6479 32.5358 16.8042C34.9717 18.4075 34.9717 21.0438 32.5513 22.6625Z" fill="white"/>
<path d="M10.4283 11.9787C10.5362 11.9633 10.6441 11.9633 10.752 11.9787C13.1416 11.9016 15.0379 9.94373 15.0379 7.53873C15.0379 5.07206 13.0491 3.08331 10.5825 3.08331C8.13121 3.08331 6.14246 5.07206 6.14246 7.53873C6.14246 9.94373 8.03871 11.9016 10.4283 11.9787Z" fill="white"/>
<path d="M10.598 19.8104C10.598 21.3058 10.9217 22.7242 11.5076 24.0037C9.33381 24.235 7.06756 23.7725 5.40256 22.6779C2.96673 21.0592 2.96673 18.4229 5.40256 16.8042C7.05214 15.6942 9.38006 15.2471 11.5692 15.4937C10.9371 16.7887 10.598 18.2533 10.598 19.8104Z" fill="white"/>
<path d="M19.185 24.4662C19.0617 24.4508 18.9229 24.4508 18.7842 24.4662C15.9475 24.3737 13.6813 22.0458 13.6813 19.1783C13.6967 16.2492 16.0554 13.875 19 13.875C21.9292 13.875 24.3034 16.2492 24.3034 19.1783C24.2879 22.0458 22.0371 24.3737 19.185 24.4662Z" fill="white"/>
<path d="M14.1745 27.6575C11.8466 29.2146 11.8466 31.7738 14.1745 33.3154C16.8262 35.0883 21.1737 35.0883 23.8254 33.3154C26.1533 31.7583 26.1533 29.1992 23.8254 27.6575C21.1891 25.8846 16.8416 25.8846 14.1745 27.6575Z" fill="white"/>
</svg>
