<svg width="50" height="51" viewBox="0 0 50 51" fill="none" xmlns="http://www.w3.org/2000/svg">
<rect width="50" height="51" rx="25" fill="#2575ED" fill-opacity="0.3"/>
<path d="M34.97 31.83C34.97 32.19 34.89 32.56 34.72 32.92C34.55 33.28 34.33 33.62 34.04 33.94C33.55 34.48 33.01 34.87 32.4 35.12C31.8 35.37 31.15 35.5 30.45 35.5C29.43 35.5 28.34 35.26 27.19 34.77C26.04 34.28 24.89 33.62 23.75 32.79C22.6 31.95 21.51 31.02 20.47 29.99C19.44 28.95 18.51 27.86 17.68 26.72C16.86 25.58 16.2 24.44 15.72 23.31C15.24 22.17 15 21.08 15 20.04C15 19.36 15.12 18.71 15.36 18.11C15.6 17.5 15.98 16.94 16.51 16.44C17.15 15.81 17.85 15.5 18.59 15.5C18.87 15.5 19.15 15.56 19.4 15.68C19.66 15.8 19.89 15.98 20.07 16.24L22.39 19.51C22.57 19.76 22.7 19.99 22.79 20.21C22.88 20.42 22.93 20.63 22.93 20.82C22.93 21.06 22.86 21.3 22.72 21.53C22.59 21.76 22.4 22 22.16 22.24L21.4 23.03C21.29 23.14 21.24 23.27 21.24 23.43C21.24 23.51 21.25 23.58 21.27 23.66C21.3 23.74 21.33 23.8 21.35 23.86C21.53 24.19 21.84 24.62 22.28 25.14C22.73 25.66 23.21 26.19 23.73 26.72C24.27 27.25 24.79 27.74 25.32 28.19C25.84 28.63 26.27 28.93 26.61 29.11C26.66 29.13 26.72 29.16 26.79 29.19C26.87 29.22 26.95 29.23 27.04 29.23C27.21 29.23 27.34 29.17 27.45 29.06L28.21 28.31C28.46 28.06 28.7 27.87 28.93 27.75C29.16 27.61 29.39 27.54 29.64 27.54C29.83 27.54 30.03 27.58 30.25 27.67C30.47 27.76 30.7 27.89 30.95 28.06L34.26 30.41C34.52 30.59 34.7 30.8 34.81 31.05C34.91 31.3 34.97 31.55 34.97 31.83Z" stroke="#2575ED" stroke-width="2.5" stroke-miterlimit="10"/>
</svg>
