<svg width="275" height="776" viewBox="0 0 275 776" fill="none" xmlns="http://www.w3.org/2000/svg">
<path fill-rule="evenodd" clip-rule="evenodd" d="M-486.684 591.308C-441.653 602.265 -382.241 613.741 -331.028 599.676C-314.231 595.062 -298.314 587.701 -284.076 576.674C-272.194 572.904 -260.811 567.669 -250.222 560.631C-249.975 560.565 -249.728 560.499 -249.482 560.431L-249.248 560.367C-239.258 557.624 -229.579 553.908 -220.38 549.027C-216.723 548.284 -213.099 547.424 -209.514 546.44C-207.2 545.804 -204.903 545.117 -202.625 544.375C-161.496 553.116 -112.855 559.251 -69.9631 547.471C-44.3471 540.436 -20.7779 527.01 -2.08826 503.935C16.5996 480.862 30.3934 448.161 36.4942 402.601C50.7032 296.49 12.5828 225.844 -16.7751 171.437C-19.501 166.386 -22.1513 161.474 -24.6773 156.687C-39.552 128.497 -50.0714 104.694 -46.414 82.063C-42.7607 59.4569 -24.937 37.9236 17.1627 14.3457L16.8835 13.8472C-25.2605 37.45 -43.2817 59.1004 -46.978 81.9719C-50.6703 104.819 -40.0444 128.787 -25.1826 156.954C-22.6578 161.738 -20.0097 166.646 -17.2867 171.693L-17.28 171.705C12.0739 226.107 50.1116 296.603 35.9279 402.526C29.8373 448.01 16.0735 480.604 -2.5322 503.575C-21.136 526.544 -44.596 539.912 -70.1144 546.921C-112.544 558.574 -160.653 552.644 -201.546 544.019C-200.157 543.554 -198.775 543.07 -197.401 542.564C-195.628 542.356 -193.86 542.124 -192.097 541.869C-161.807 545.604 -130.011 545.87 -100.87 537.866C-75.2541 530.831 -51.6849 517.405 -32.9953 494.33C-14.3075 471.257 -0.513617 438.556 5.58715 392.997C19.7962 286.885 -18.3243 216.239 -47.6821 161.833C-50.408 156.781 -53.0583 151.869 -55.5843 147.082C-70.459 118.892 -80.9784 95.0888 -77.321 72.458C-73.6676 49.852 -55.8441 28.3187 -13.7443 4.74074L-14.0235 4.24225C-56.1675 27.845 -74.1887 49.4955 -77.885 72.3669C-81.5774 95.2137 -70.9514 119.183 -56.0896 147.349C-53.5627 152.137 -50.9122 157.05 -48.1869 162.1C-18.8331 216.503 19.2046 286.999 5.02089 392.921C-1.06977 438.405 -14.8336 470.999 -33.4392 493.97C-52.043 516.939 -75.5031 530.307 -101.021 537.316C-129.418 545.115 -160.359 545.038 -189.977 541.549C-188.916 541.382 -187.856 541.207 -186.799 541.022C-169.09 540.974 -151.467 539.105 -134.721 534.506C-109.105 527.471 -85.5361 514.044 -66.8465 490.969C-48.1587 467.897 -34.3648 435.196 -28.2641 389.636C-14.055 283.524 -52.1755 212.879 -81.5333 158.472C-84.2592 153.42 -86.9096 148.509 -89.4355 143.722C-104.31 115.531 -114.83 91.7284 -111.172 69.0977C-107.519 46.4915 -89.6953 24.9583 -47.5956 1.38036L-47.8747 0.881871C-90.0187 24.4847 -108.04 46.1351 -111.736 69.0065C-115.429 91.8533 -104.803 115.822 -89.9408 143.988C-87.4153 148.775 -84.7663 153.684 -82.0425 158.732L-82.0381 158.74C-52.6843 213.142 -14.6467 283.638 -28.8303 389.56C-34.921 435.045 -48.6848 467.638 -67.2904 490.61C-85.8942 513.579 -109.354 526.947 -134.873 533.955C-150.537 538.257 -166.975 540.163 -183.538 540.421C-179.361 539.611 -175.224 538.652 -171.139 537.53C-145.523 530.495 -121.954 517.068 -103.264 493.993C-84.5762 470.92 -70.7823 438.22 -64.6816 392.66C-50.4725 286.548 -88.593 215.902 -117.951 161.496C-120.677 156.444 -123.327 151.532 -125.853 146.745C-140.728 118.555 -151.247 94.7522 -147.59 72.1215C-143.936 49.5153 -126.113 27.9821 -84.0131 4.40417L-84.2922 3.90568C-126.436 27.5085 -144.457 49.1589 -148.154 72.0303C-151.846 94.8771 -141.22 118.846 -126.358 147.012C-123.833 151.798 -121.184 156.708 -118.46 161.756L-118.456 161.764C-89.1018 216.166 -51.0642 286.662 -65.2478 392.584C-71.3385 438.069 -85.1023 470.662 -103.708 493.634C-122.312 516.603 -145.772 529.97 -171.29 536.979C-176.402 538.383 -181.596 539.532 -186.85 540.451C-188.539 540.456 -190.228 540.443 -191.918 540.415C-173.143 532.599 -155.959 520.583 -141.639 502.903C-122.952 479.83 -109.158 447.13 -103.057 401.57C-88.8479 295.458 -126.968 224.812 -156.326 170.406L-156.33 170.399C-159.054 165.35 -161.704 160.44 -164.228 155.655C-179.103 127.465 -189.623 103.662 -185.965 81.0315C-182.312 58.4254 -164.488 36.8922 -122.388 13.3142L-122.668 12.8157C-164.812 36.4185 -182.833 58.0689 -186.529 80.9404C-190.221 103.787 -179.595 127.756 -164.734 155.922C-162.218 160.689 -159.58 165.579 -156.868 170.605L-156.863 170.615L-156.858 170.624L-156.84 170.657L-156.835 170.666L-156.831 170.674C-127.477 225.076 -89.4395 295.572 -103.623 401.494C-109.714 446.979 -123.478 479.572 -142.083 502.544C-156.645 520.523 -174.183 532.619 -193.354 540.388C-195.816 540.334 -198.278 540.247 -200.737 540.129C-202.195 539.917 -203.649 539.698 -205.097 539.472C-196.568 533.244 -188.605 525.76 -181.373 516.831C-162.686 493.758 -148.892 461.057 -142.791 415.497C-128.582 309.385 -166.702 238.74 -196.06 184.333C-198.786 179.282 -201.436 174.37 -203.962 169.583C-218.837 141.392 -229.357 117.59 -225.699 94.9589C-222.046 72.3528 -204.222 50.8195 -162.122 27.2416L-162.402 26.7431C-204.546 50.3459 -222.567 71.9963 -226.263 94.8678C-229.955 117.715 -219.33 141.683 -204.468 169.849C-201.941 174.638 -199.29 179.55 -196.565 184.601C-167.211 239.003 -129.174 309.499 -143.357 415.422C-149.448 460.906 -163.212 493.5 -181.817 516.471C-189.147 525.521 -197.23 533.08 -205.897 539.347C-211.75 538.423 -217.521 537.394 -223.178 536.295C-222.78 535.817 -222.384 535.335 -221.99 534.849C-203.302 511.776 -189.509 479.075 -183.408 433.515C-169.199 327.403 -207.319 256.758 -236.677 202.351C-239.403 197.3 -242.053 192.388 -244.579 187.601C-259.454 159.41 -269.973 135.608 -266.316 112.977C-262.663 90.3707 -244.839 68.8374 -202.739 45.2595L-203.018 44.761C-245.162 68.3638 -263.184 90.0142 -266.88 112.886C-270.572 135.732 -259.946 159.701 -245.085 187.867C-242.558 192.656 -239.907 197.568 -237.182 202.619C-207.828 257.021 -169.79 327.517 -183.974 433.439C-190.065 478.924 -203.829 511.518 -222.434 534.489C-222.893 535.055 -223.354 535.615 -223.818 536.17C-231.787 534.612 -239.526 532.919 -246.947 531.193C-236.494 511.044 -228.738 485.924 -224.571 454.806C-210.362 348.694 -248.482 278.048 -277.84 223.642C-280.566 218.59 -283.216 213.678 -285.742 208.891C-300.617 180.701 -311.136 156.898 -307.479 134.267C-303.825 111.661 -286.002 90.1279 -243.902 66.55L-244.181 66.0515C-286.325 89.6543 -304.347 111.305 -308.043 134.176C-311.735 157.023 -301.109 180.992 -286.247 209.158C-283.721 213.947 -281.07 218.859 -278.345 223.91C-248.991 278.312 -210.953 348.808 -225.137 454.73C-229.306 485.863 -237.07 510.957 -247.521 531.06C-250.533 530.357 -253.491 529.65 -256.391 528.944L-256.526 529.499C-253.671 530.194 -250.759 530.891 -247.794 531.583C-248.288 532.525 -248.789 533.457 -249.295 534.378C-263.74 531.795 -277.556 528.67 -290.242 525.584L-290.377 526.139C-277.746 529.212 -263.983 532.326 -249.587 534.906C-250.926 537.32 -252.305 539.658 -253.723 541.922C-279.675 539.338 -304.839 533.916 -326.66 528.608L-326.795 529.163C-305.055 534.452 -279.965 539.862 -254.063 542.462C-256.264 545.942 -258.556 549.246 -260.935 552.382C-297.515 552.576 -334.541 544.937 -365.035 537.518L-365.17 538.073C-334.802 545.461 -297.894 553.087 -261.372 552.955C-262.105 553.912 -262.847 554.854 -263.597 555.779C-266.015 558.765 -268.515 561.588 -271.09 564.255C-316.648 570.671 -365.989 560.88 -404.769 551.445L-404.904 552C-366.336 561.384 -317.219 571.149 -271.739 564.922C-275.766 569.033 -279.976 572.77 -284.345 576.16C-286.224 576.754 -288.114 577.312 -290.016 577.834C-341.072 591.857 -400.351 580.42 -445.386 569.463L-445.521 570.018C-400.49 580.974 -341.078 592.451 -289.865 578.385C-288.458 577.999 -287.057 577.593 -285.662 577.167C-299.519 587.622 -314.932 594.663 -331.179 599.125C-382.235 613.147 -441.514 601.711 -486.549 590.753L-486.684 591.308ZM-202.656 543.784C-201.718 543.477 -200.784 543.161 -199.853 542.836C-201.529 543.012 -203.209 543.168 -204.892 543.304C-204.149 543.465 -203.404 543.625 -202.656 543.784ZM-206.839 542.88C-203.726 542.656 -200.623 542.366 -197.536 542.005C-196.983 541.801 -196.432 541.594 -195.882 541.383C-197.525 541.164 -199.163 540.936 -200.796 540.698C-202.652 540.61 -204.506 540.503 -206.358 540.381C-207.304 541.054 -208.257 541.711 -209.216 542.354C-208.426 542.53 -207.634 542.705 -206.839 542.88ZM-209.874 542.792C-209.54 542.867 -209.205 542.942 -208.869 543.016C-209.362 543.047 -209.855 543.076 -210.349 543.104C-210.19 543 -210.032 542.896 -209.874 542.792ZM-209.987 542.181C-209.072 541.574 -208.164 540.954 -207.262 540.32C-213.26 539.906 -219.233 539.323 -225.15 538.606L-225.168 538.626C-220.265 539.817 -215.195 541.013 -209.987 542.181ZM-225.593 539.111C-220.768 540.284 -215.777 541.464 -210.649 542.618C-210.93 542.802 -211.211 542.984 -211.493 543.165C-217.497 543.472 -223.533 543.543 -229.569 543.416C-228.223 542.023 -226.897 540.588 -225.593 539.111ZM-206.882 543.455C-205.842 543.683 -204.796 543.91 -203.746 544.135C-205.706 544.759 -207.679 545.344 -209.666 545.889C-212.624 546.702 -215.61 547.429 -218.62 548.075C-216.147 546.714 -213.709 545.266 -211.312 543.728C-209.833 543.651 -208.356 543.561 -206.882 543.455ZM-190.223 541.009C-190.849 541.107 -191.475 541.201 -192.102 541.292C-192.603 541.23 -193.103 541.168 -193.603 541.104C-193.485 541.056 -193.366 541.009 -193.248 540.961C-192.24 540.983 -191.232 540.999 -190.223 541.009ZM-194.268 541.595L-194.701 541.539L-194.871 541.605C-194.96 541.64 -195.05 541.675 -195.139 541.71L-194.936 541.683L-194.674 541.649C-194.539 541.631 -194.403 541.613 -194.268 541.595ZM-194.703 540.926L-194.772 540.953L-195.052 540.916L-194.703 540.926ZM-223.598 536.795C-218.109 537.865 -212.511 538.87 -206.833 539.777C-212.822 539.371 -218.787 538.795 -224.698 538.085C-224.329 537.658 -223.963 537.229 -223.598 536.795ZM-247.219 531.717C-239.848 533.432 -232.159 535.117 -224.239 536.67C-224.618 537.118 -224.999 537.562 -225.382 538.002C-233.279 537.039 -241.076 535.838 -248.701 534.484C-248.202 533.572 -247.707 532.65 -247.219 531.717ZM-248.993 535.012C-250.319 537.41 -251.685 539.733 -253.089 541.984C-245.552 542.721 -237.951 543.216 -230.348 543.398C-228.817 541.828 -227.313 540.203 -225.836 538.522C-233.68 537.557 -241.422 536.36 -248.993 535.012ZM-230.112 543.975C-224.222 544.111 -218.33 544.058 -212.466 543.785C-215.123 545.459 -217.827 547.023 -220.575 548.483C-226.216 549.627 -231.934 550.494 -237.702 551.116C-235.108 548.871 -232.576 546.493 -230.112 543.975ZM-253.428 542.525C-245.962 543.261 -238.431 543.761 -230.895 543.956C-233.427 546.522 -236.031 548.942 -238.701 551.221C-245.818 551.954 -253.007 552.319 -260.215 552.377C-257.866 549.26 -255.602 545.978 -253.428 542.525ZM-260.65 552.952C-261.474 554.034 -262.309 555.096 -263.153 556.139C-265.423 558.941 -267.764 561.601 -270.172 564.124C-263.503 563.152 -256.917 561.829 -250.46 560.104C-246.691 557.595 -243.024 554.856 -239.471 551.873C-246.481 552.566 -253.557 552.906 -260.65 552.952ZM-238.465 551.771C-241.795 554.605 -245.225 557.222 -248.746 559.636C-239.646 557.094 -230.811 553.737 -222.369 549.419C-227.677 550.434 -233.051 551.209 -238.465 551.771ZM-270.816 564.794C-264.444 563.89 -258.145 562.669 -251.959 561.086C-261.656 567.342 -272.002 572.112 -282.777 575.654C-278.637 572.358 -274.643 568.746 -270.816 564.794ZM-41.9772 562.49C-93.1905 576.556 -152.602 565.08 -197.633 554.123L-197.498 553.568C-152.463 564.525 -93.1841 575.962 -42.1286 561.94C-16.6102 554.931 6.84988 541.563 25.4537 518.594C44.0593 495.623 57.8231 463.029 63.9138 417.545C78.0975 311.623 40.0598 241.127 10.7059 186.724C7.98066 181.674 5.33022 176.761 2.80334 171.973C-12.0585 143.807 -22.6845 119.838 -18.9921 96.9909C-15.2958 74.1195 2.72538 52.469 44.8694 28.8662L45.1486 29.3647C3.04883 52.9427 -14.7747 74.476 -18.4281 97.082C-22.0855 119.713 -11.5661 143.516 3.30862 171.706C5.83454 176.493 8.48492 181.405 11.2108 186.457C40.5687 240.863 78.6891 311.509 64.4801 417.62C58.3793 463.18 44.5854 495.881 25.8976 518.954C7.20799 542.029 -16.3612 555.455 -41.9772 562.49ZM-172.151 573.32C-127.119 584.276 -67.708 595.753 -16.4948 581.687C9.12128 574.652 32.6905 561.226 51.3801 538.15C70.0679 515.078 83.8618 482.377 89.9625 436.817C104.172 330.705 66.0511 260.06 36.6934 205.653L36.6925 205.652C33.9668 200.6 31.3168 195.689 28.7911 190.903C13.9164 162.712 3.39694 138.909 7.05435 116.279C10.7078 93.6726 28.5313 72.1393 70.631 48.5614L70.3519 48.0629C28.2079 71.6657 10.1867 93.3161 6.49036 116.188C2.79806 139.034 13.424 163.003 28.2858 191.169C30.8113 195.956 33.4603 200.865 36.1841 205.913L36.1885 205.921C65.5423 260.323 103.58 330.819 89.3963 436.741C83.3056 482.226 69.5418 514.82 50.9362 537.791C32.3323 560.76 8.87233 574.128 -16.6461 581.136C-67.7017 595.158 -126.98 583.722 -172.016 572.765L-172.151 573.32ZM7.12584 603.774C-44.0875 617.839 -103.499 606.363 -148.53 595.407L-148.395 594.852C-103.36 605.809 -44.0811 617.245 6.97452 603.223C32.4929 596.214 55.9529 582.847 74.5567 559.878C93.1624 536.906 106.926 504.313 113.017 458.828C127.201 352.906 89.1629 282.41 59.809 228.008C57.0837 222.957 54.4333 218.045 51.9064 213.256C37.0446 185.09 26.4187 161.121 30.111 138.274C33.8073 115.403 51.8285 93.7524 93.9725 70.1496L94.2517 70.6481C52.1519 94.226 34.3284 115.759 30.675 138.365C27.0176 160.996 37.537 184.799 52.4117 212.989C54.9376 217.776 57.588 222.688 60.3139 227.74C89.6717 282.146 127.792 352.792 113.583 458.904C107.482 504.464 93.6885 537.164 75.0007 560.237C56.3111 583.312 32.7419 596.739 7.12584 603.774ZM-126.096 619.243C-81.0645 630.199 -21.6533 641.676 29.56 627.61C55.1761 620.575 78.7453 607.148 97.4349 584.073C116.123 561.001 129.917 528.3 136.017 482.74C150.226 376.628 112.106 305.982 82.7481 251.576C80.0222 246.524 77.3718 241.613 74.8459 236.825C59.9712 208.635 49.4518 184.832 53.1092 162.202C56.7625 139.595 74.5861 118.062 116.686 94.4843L116.407 93.9858C74.2627 117.589 56.2415 139.239 52.5452 162.11C48.8528 184.957 59.4788 208.926 74.3406 237.092C76.8675 241.881 79.5179 246.793 82.2432 251.844C111.597 306.246 149.635 376.742 135.451 482.664C129.36 528.149 115.597 560.742 96.991 583.714C78.3871 606.683 54.9271 620.051 29.4087 627.059C-21.6469 641.081 -80.9255 629.645 -125.961 618.688L-126.096 619.243ZM51.4081 652.29C0.194844 666.355 -59.2164 654.879 -104.248 643.923L-104.113 643.368C-59.0774 654.325 0.201239 665.761 51.2568 651.739C76.7752 644.73 100.235 631.363 118.839 608.394C137.445 585.422 151.209 552.829 157.299 507.344C171.483 401.422 133.445 330.926 104.091 276.524L104.087 276.516C101.363 271.468 98.7142 266.558 96.1887 261.772C81.3269 233.606 70.701 209.637 74.3933 186.79C78.0896 163.919 96.1108 142.268 138.255 118.666L138.534 119.164C96.4342 142.742 78.6107 164.275 74.9572 186.881C71.2998 209.512 81.8193 233.315 96.694 261.505C99.2197 266.292 101.87 271.203 104.595 276.254L104.596 276.256C133.954 330.662 172.075 401.308 157.865 507.42C151.765 552.98 137.971 585.68 119.283 608.753C100.593 631.828 77.0242 645.255 51.4081 652.29ZM-82.501 668.739C-37.4696 679.696 21.9416 691.172 73.1549 677.107C98.771 670.071 122.34 656.645 141.03 633.57C159.718 610.497 173.511 577.797 179.612 532.237C193.821 426.125 155.701 355.479 126.343 301.073C123.617 296.021 120.967 291.109 118.441 286.322C103.566 258.132 93.0466 234.329 96.704 211.698C100.357 189.092 118.181 167.559 160.281 143.981L160.002 143.482C117.858 167.085 99.8363 188.736 96.14 211.607C92.4477 234.454 103.074 258.423 117.936 286.589C120.462 291.378 123.113 296.29 125.838 301.341C155.192 355.743 193.23 426.239 179.046 532.161C172.955 577.645 159.191 610.239 140.586 633.21C121.982 656.18 98.522 669.547 73.0036 676.556C21.948 690.578 -37.3306 679.142 -82.366 668.184L-82.501 668.739ZM95.1733 701.545C43.96 715.611 -15.4512 704.134 -60.4826 693.178L-60.3476 692.623C-15.3122 703.58 43.9664 715.016 95.022 700.994C120.54 693.986 144 680.618 162.604 657.649C181.21 634.678 194.974 602.084 201.064 556.599C215.248 450.677 177.21 380.181 147.857 325.779L147.852 325.771C145.128 320.723 142.479 315.814 139.954 311.027C125.092 282.861 114.466 258.892 118.158 236.046C121.855 213.174 139.876 191.524 182.02 167.921L182.299 168.419C140.199 191.997 122.376 213.531 118.722 236.137C115.065 258.767 125.584 282.57 140.459 310.761C142.985 315.547 145.635 320.458 148.361 325.51L148.361 325.511C177.719 379.918 215.84 450.563 201.631 556.675C195.53 602.235 181.736 634.936 163.048 658.008C144.359 681.084 120.789 694.51 95.1733 701.545ZM-37.9297 716.842C7.1017 727.798 66.5129 739.275 117.726 725.209C143.342 718.174 166.911 704.748 185.601 681.673C204.289 658.6 218.083 625.899 224.184 580.339C238.393 474.227 200.272 403.582 170.914 349.175C168.188 344.124 165.538 339.212 163.012 334.425C148.137 306.234 137.618 282.432 141.275 259.801C144.929 237.195 162.752 215.662 204.852 192.084L204.573 191.585C162.429 215.188 144.408 236.838 140.711 259.71C137.019 282.557 147.645 306.525 162.507 334.691C165.034 339.48 167.684 344.392 170.409 349.443C199.763 403.845 237.801 474.341 223.617 580.264C217.527 625.748 203.763 658.342 185.157 681.313C166.553 704.282 143.093 717.65 117.575 724.658C66.5193 738.681 7.24071 727.244 -37.7946 716.287L-37.9297 716.842ZM140.994 747.82C89.7804 761.886 30.3692 750.409 -14.6622 739.453L-14.5272 738.898C30.5082 749.855 89.7868 761.292 140.842 747.269C166.361 740.261 189.821 726.893 208.425 703.924C227.03 680.953 240.794 648.359 246.885 602.874C261.068 496.952 223.031 426.456 193.677 372.054L193.671 372.044L193.645 371.995C190.931 366.965 188.291 362.072 185.774 357.302C170.912 329.136 160.287 305.167 163.979 282.321C167.675 259.449 185.696 237.799 227.84 214.196L228.12 214.695C186.02 238.272 168.196 259.806 164.543 282.412C160.885 305.043 171.405 328.845 186.28 357.036C188.802 361.816 191.448 366.72 194.17 371.765L194.178 371.78L194.182 371.786C223.54 426.193 261.66 496.838 247.451 602.95C241.35 648.51 227.556 681.211 208.869 704.284C190.179 727.359 166.61 740.785 140.994 747.82ZM9.43544 760.818C54.4668 771.774 113.878 783.251 165.091 769.185C190.707 762.15 214.277 748.724 232.966 725.648C251.654 702.576 265.448 669.875 271.549 624.315C285.758 518.203 247.637 447.558 218.279 393.151L218.276 393.145C215.551 388.095 212.902 383.186 210.377 378.401C195.503 350.21 184.983 326.407 188.64 303.777C192.294 281.171 210.117 259.637 252.217 236.059L251.938 235.561C209.794 259.164 191.773 280.814 188.076 303.686C184.384 326.532 195.01 350.501 209.872 378.667C212.397 383.453 215.046 388.361 217.769 393.409L217.775 393.419C247.128 447.821 285.166 518.317 270.982 624.239C264.892 669.724 251.128 702.318 232.522 725.289C213.918 748.258 190.458 761.626 164.94 768.634C113.884 782.656 54.6058 771.22 9.5705 760.263L9.43544 760.818Z" fill="url(#paint0_radial_11_113)" fill-opacity="0.58"/>
<defs>
<radialGradient id="paint0_radial_11_113" cx="0" cy="0" r="1" gradientUnits="userSpaceOnUse" gradientTransform="translate(9.36367 453.032) rotate(-73.1241) scale(384.894 393.663)">
<stop stop-color="white"/>
<stop offset="1" stop-color="#1E1E1E" stop-opacity="0"/>
<stop offset="1" stop-color="#0E0E35" stop-opacity="0"/>
<stop offset="1" stop-color="white" stop-opacity="0"/>
</radialGradient>
</defs>
</svg>
