<svg width="389" height="694" viewBox="0 0 389 694" fill="none" xmlns="http://www.w3.org/2000/svg">
<path fill-rule="evenodd" clip-rule="evenodd" d="M725.172 595.912C680.635 600.368 622.374 603.522 576.139 584.324C560.975 578.027 547.101 569.325 535.429 557.475C524.786 552.558 514.86 546.362 505.986 538.613C505.692 538.494 505.399 538.373 505.107 538.252C496.088 534.507 487.525 529.911 479.611 524.308C476.266 523.176 472.97 521.942 469.734 520.598C467.644 519.73 465.578 518.816 463.539 517.855C423.072 520.768 375.913 520.368 337.189 504.289C314.063 494.686 293.938 479.489 280.048 456.065C266.159 432.643 258.516 401.018 260.31 358.582C264.49 259.747 312.404 199.83 349.305 153.686L349.31 153.68L349.339 153.643C352.753 149.374 356.073 145.222 359.255 141.168C368.65 129.199 376.838 118.092 382.714 107.326C388.589 96.5617 392.145 86.1536 392.294 75.5823C392.59 54.4558 379.271 32.5558 343.26 5.77989L343.572 5.36007C379.62 32.163 393.117 54.2016 392.817 75.5897C392.667 86.2756 389.072 96.7688 383.173 107.577C377.275 118.383 369.064 129.519 359.667 141.491C356.476 145.556 353.148 149.718 349.726 153.998L349.718 154.008L349.716 154.01C312.818 200.153 265.005 259.946 260.833 358.604C259.042 400.968 266.674 432.485 280.498 455.798C294.321 479.109 314.348 494.239 337.389 503.806C375.71 519.717 422.347 520.236 462.581 517.399C461.34 516.802 460.108 516.187 458.888 515.554C457.24 515.144 455.601 514.714 453.971 514.262C424.618 513.934 394.414 510.247 368.104 499.323C344.978 489.72 324.854 474.523 310.964 451.099C297.074 427.677 289.432 396.052 291.226 353.616C295.405 254.781 343.32 194.864 380.22 148.72L380.225 148.714L380.243 148.692C383.661 144.417 386.985 140.26 390.171 136.202C399.566 124.233 407.753 113.126 413.629 102.36C419.505 91.5956 423.061 81.1875 423.209 70.6162C423.505 49.4897 410.187 27.5898 374.175 0.813838L374.487 0.394017C410.535 27.1969 424.032 49.2356 423.732 70.6235C423.582 81.3095 419.988 91.8026 414.089 102.611C408.19 113.417 399.98 124.553 390.582 136.525C387.39 140.592 384.06 144.756 380.637 149.037L380.632 149.044C343.734 195.187 295.921 254.98 291.749 353.638C289.957 396.002 297.589 427.519 311.413 450.832C325.236 474.143 345.264 489.273 368.305 498.84C393.958 509.492 423.339 513.245 452.03 513.712C451.045 513.427 450.064 513.133 449.086 512.832C432.296 510.598 415.892 506.711 400.774 500.433C377.648 490.831 357.523 475.633 343.633 452.209C329.744 428.787 322.101 397.162 323.896 354.726C328.075 255.891 375.989 195.974 412.89 149.83L412.895 149.824L412.912 149.802C416.331 145.527 419.655 141.371 422.84 137.312C432.236 125.343 440.423 114.236 446.299 103.47C452.174 92.7059 455.73 82.2978 455.879 71.7265C456.175 50.6 442.856 28.7 406.845 1.9241L407.157 1.50428C443.205 28.3072 456.702 50.3458 456.402 71.7338C456.252 82.4198 452.657 92.9129 446.758 103.721C440.86 114.527 432.649 125.663 423.252 137.635C420.06 141.702 416.73 145.866 413.306 150.148L413.301 150.154C376.403 196.297 328.59 256.09 324.418 354.748C322.627 397.112 330.259 428.63 344.083 451.942C357.906 475.253 377.933 490.383 400.974 499.95C415.14 505.832 430.442 509.61 446.136 511.893C442.294 510.632 438.516 509.239 434.815 507.702C411.689 498.099 391.565 482.902 377.674 459.478C363.785 436.056 356.142 404.431 357.937 361.995C362.116 263.16 410.031 203.243 446.931 157.099L446.936 157.093L446.937 157.092C450.361 152.81 453.691 148.646 456.881 144.581C466.277 132.612 474.464 121.505 480.34 110.739C486.215 99.9746 489.772 89.5665 489.92 78.9952C490.216 57.8687 476.898 35.9688 440.886 9.19278L441.198 8.77296C477.246 35.5759 490.743 57.6146 490.443 79.0025C490.293 89.6885 486.698 100.182 480.799 110.989C474.901 121.796 466.69 132.932 457.293 144.904C454.099 148.973 450.768 153.139 447.342 157.423C410.444 203.566 362.631 263.359 358.459 362.017C356.668 404.381 364.3 435.898 378.124 459.211C391.947 482.522 411.974 497.651 435.016 507.219C439.631 509.135 444.368 510.829 449.199 512.32C450.816 512.534 452.436 512.734 454.059 512.918C437.545 503.446 423.238 490.326 412.593 472.374C398.704 448.952 391.061 417.327 392.856 374.89C397.035 276.056 444.949 216.139 481.85 169.995L481.855 169.989L481.861 169.98L481.889 169.946L481.892 169.942L481.897 169.935L481.904 169.927C485.311 165.666 488.625 161.523 491.8 157.477C501.196 145.507 509.383 134.4 515.259 123.635C521.134 112.87 524.69 102.462 524.839 91.891C525.135 70.7645 511.816 48.8645 475.805 22.0886L476.117 21.6688C512.165 48.4717 525.662 70.5104 525.362 91.8983C525.212 102.584 521.617 113.077 515.718 123.885C509.82 134.692 501.609 145.828 492.212 157.8C489.018 161.868 485.687 166.035 482.261 170.318C445.363 216.462 397.55 276.255 393.378 374.913C391.587 417.277 399.219 448.794 413.043 472.107C423.863 490.354 438.485 503.588 455.378 513.065C457.725 513.321 460.078 513.546 462.433 513.743C463.861 513.729 465.286 513.708 466.707 513.68C459.651 506.926 453.342 499.093 447.966 490.028C434.077 466.606 426.434 434.981 428.228 392.544C432.408 293.709 480.322 233.792 517.222 187.649L517.227 187.643L517.234 187.634L517.262 187.599L517.265 187.596L517.27 187.589L517.277 187.581C520.684 183.32 523.997 179.176 527.173 175.131C536.568 163.161 544.756 152.054 550.632 141.288C556.507 130.524 560.063 120.116 560.211 109.545C560.508 88.4183 547.189 66.5183 511.178 39.7424L511.49 39.3226C547.538 66.1255 561.034 88.1642 560.735 109.552C560.585 120.238 556.99 130.731 551.091 141.539C545.193 152.346 536.982 163.482 527.585 175.454C524.391 179.522 521.059 183.688 517.634 187.972C480.736 234.115 432.923 293.909 428.751 392.566C426.96 434.93 434.591 466.448 448.416 489.761C453.862 498.945 460.272 506.86 467.449 513.665C473.167 513.543 478.824 513.314 484.384 513.007C484.085 512.519 483.789 512.028 483.495 511.533C469.606 488.111 461.963 456.486 463.758 414.05C467.937 315.215 515.852 255.298 552.752 209.154L552.757 209.148L552.763 209.14L552.791 209.105L552.794 209.101L552.799 209.095L552.806 209.086C556.214 204.825 559.527 200.682 562.702 196.636C572.098 184.667 580.285 173.56 586.161 162.794C592.036 152.03 595.593 141.622 595.741 131.05C596.037 109.924 582.719 88.0239 546.707 61.2479L547.019 60.8281C583.067 87.6311 596.564 109.67 596.264 131.058C596.114 141.744 592.519 152.237 586.62 163.045C580.722 173.851 572.511 184.987 563.114 196.959C559.92 201.028 556.589 205.194 553.163 209.478C516.265 255.621 468.452 315.414 464.28 414.072C462.489 456.436 470.121 487.954 483.945 511.266C484.286 511.84 484.63 512.41 484.978 512.974C492.807 512.533 500.441 511.94 507.777 511.278C501.213 491.548 498.035 467.605 499.261 438.617C503.44 339.782 551.355 279.865 588.255 233.721L588.26 233.715L588.267 233.707L588.294 233.672L588.297 233.668L588.302 233.662L588.309 233.653C591.717 229.392 595.03 225.249 598.206 221.203C607.601 209.234 615.788 198.127 621.664 187.361C627.54 176.597 631.096 166.189 631.244 155.617C631.54 134.491 618.222 112.591 582.21 85.815L582.522 85.3952C618.57 112.198 632.067 134.237 631.767 155.625C631.617 166.311 628.022 176.804 622.123 187.612C616.225 198.418 608.014 209.554 598.617 221.526C595.423 225.595 592.092 229.761 588.666 234.045C551.768 280.188 503.955 339.981 499.783 438.639C498.557 467.635 501.746 491.549 508.312 511.229C511.289 510.959 514.215 510.677 517.085 510.39L517.137 510.911C514.306 511.194 511.419 511.472 508.484 511.739C508.796 512.663 509.116 513.578 509.443 514.484C523.577 513.907 537.205 512.756 549.755 511.5L549.807 512.021C537.306 513.272 523.724 514.42 509.63 515C510.499 517.375 511.419 519.685 512.388 521.933C537.438 522.778 562.213 520.928 583.796 518.769L583.848 519.289C562.339 521.442 537.628 523.29 512.618 522.464C514.127 525.921 515.752 529.229 517.487 532.394C552.157 537.094 588.553 534.683 618.715 531.665L618.767 532.185C588.722 535.192 552.432 537.605 517.801 532.964C518.34 533.934 518.889 534.89 519.448 535.833C521.244 538.862 523.145 541.753 525.144 544.511C567.294 556.014 615.731 553.156 654.088 549.319L654.14 549.839C615.981 553.657 567.749 556.519 525.637 545.187C528.776 549.451 532.151 553.395 535.735 557.04C537.418 557.817 539.119 558.561 540.837 559.274C586.936 578.416 645.074 575.281 689.617 570.824L689.669 571.345C645.132 575.801 586.871 578.955 540.636 559.757C539.342 559.22 538.058 558.665 536.784 558.093C548.195 569.387 561.655 577.744 576.34 583.841C622.439 602.983 680.577 599.848 725.12 595.391L725.172 595.912ZM463.638 517.323C462.785 516.92 461.937 516.509 461.094 516.089C462.681 516.464 464.275 516.82 465.876 517.158C465.133 517.214 464.387 517.269 463.638 517.323ZM467.759 517.013C464.841 516.423 461.945 515.774 459.075 515.061C458.583 514.806 458.092 514.547 457.604 514.285C459.212 514.288 460.817 514.282 462.418 514.266C464.194 514.414 465.97 514.547 467.748 514.664C468.534 515.396 469.328 516.116 470.132 516.823C469.344 516.888 468.553 516.951 467.759 517.013ZM470.681 517.303C470.339 517.331 469.996 517.359 469.653 517.387C470.133 517.48 470.613 517.571 471.094 517.66L470.92 517.51L470.768 517.378L470.681 517.303ZM470.858 516.764C470.089 516.093 469.328 515.411 468.575 514.717C474.347 515.081 480.123 515.287 485.868 515.362L485.883 515.385C481.024 515.87 476.005 516.338 470.858 516.764ZM486.204 515.878C481.421 516.357 476.479 516.82 471.411 517.243C471.551 517.364 471.692 517.484 471.833 517.604C471.929 517.686 472.025 517.768 472.121 517.849C477.779 518.874 483.505 519.687 489.265 520.317C488.218 518.874 487.197 517.395 486.204 515.878ZM467.729 517.54C466.693 517.621 465.653 517.7 464.608 517.777C466.365 518.591 468.14 519.37 469.934 520.115C472.629 521.233 475.365 522.276 478.137 523.247C476.004 521.687 473.921 520.052 471.89 518.338C470.499 518.085 469.111 517.819 467.729 517.54ZM452.263 513.235C452.855 513.406 453.449 513.574 454.044 513.739C454.542 513.745 455.039 513.749 455.536 513.753C455.429 513.693 455.322 513.633 455.215 513.573C454.23 513.466 453.246 513.353 452.263 513.235ZM456.031 514.279L456.496 514.282C456.639 514.36 456.782 514.437 456.926 514.515C456.745 514.467 456.564 514.42 456.383 514.372C456.266 514.341 456.148 514.31 456.031 514.279ZM456.553 513.716L456.631 513.759L456.977 513.76L456.776 513.739L456.553 513.716ZM484.697 513.514C479.291 513.815 473.791 514.043 468.232 514.171C474.003 514.542 479.781 514.754 485.528 514.834C485.249 514.397 484.972 513.957 484.697 513.514ZM507.948 511.788C500.66 512.447 493.074 513.039 485.292 513.481C485.577 513.938 485.865 514.392 486.155 514.843C493.818 514.938 501.426 514.803 508.895 514.506C508.572 513.609 508.256 512.703 507.948 511.788ZM509.082 515.022C509.941 517.381 510.851 519.678 511.809 521.913C504.526 521.655 497.222 521.168 489.968 520.393C488.776 518.766 487.618 517.092 486.497 515.37C494.109 515.458 501.665 515.319 509.082 515.022ZM489.682 520.888C484.056 520.283 478.46 519.504 472.928 518.524C475.173 520.389 477.483 522.158 479.851 523.837C485.026 525.585 490.322 527.089 495.706 528.374C493.614 525.995 491.604 523.502 489.682 520.888ZM512.039 522.444C504.822 522.194 497.582 521.719 490.388 520.963C492.365 523.627 494.434 526.165 496.589 528.583C503.23 530.136 510.002 531.36 516.842 532.306C515.131 529.16 513.528 525.875 512.039 522.444ZM517.155 532.876C517.756 533.968 518.371 535.042 518.998 536.1C520.688 538.95 522.471 541.679 524.34 544.29C518.159 542.573 512.117 540.545 506.264 538.162C503.103 535.397 500.076 532.434 497.199 529.261C503.747 530.767 510.419 531.956 517.155 532.876ZM496.309 529.054C499.006 532.07 501.836 534.899 504.787 537.551C496.538 534.089 488.68 529.909 481.36 524.889C486.249 526.484 491.241 527.864 496.309 529.054ZM524.828 544.967C518.91 543.346 513.115 541.441 507.488 539.217C515.673 546.168 524.729 551.831 534.4 556.416C531.009 552.88 527.811 549.069 524.828 544.967ZM308.143 514.57C354.378 533.768 412.639 530.613 457.176 526.157L457.124 525.637C412.581 530.093 354.444 533.228 308.344 514.086C285.303 504.519 265.275 489.389 251.453 466.079C237.628 442.766 229.996 411.249 231.788 368.884C235.96 270.227 283.773 210.433 320.671 164.29C324.096 160.007 327.428 155.84 330.621 151.772C340.019 139.8 348.229 128.664 354.128 117.857C360.027 107.049 363.621 96.5562 363.771 85.8702C364.071 64.4823 350.574 42.4436 314.526 15.6406L314.214 16.0604C350.226 42.8364 363.544 64.7364 363.248 85.8629C363.1 96.4342 359.544 106.842 353.669 117.607C347.792 128.372 339.605 139.479 330.21 151.449C327.019 155.514 323.689 159.678 320.264 163.96L320.259 163.967C283.359 210.11 235.444 270.027 231.265 368.862C229.471 411.299 237.114 442.924 251.003 466.346C264.893 489.77 285.017 504.967 308.143 514.57ZM429.81 540.569C385.273 545.026 327.012 548.18 280.777 528.982C257.651 519.379 237.526 504.182 223.636 480.758C209.747 457.336 202.104 425.711 203.899 383.274C208.078 284.44 255.992 224.523 292.893 178.379L292.898 178.373L292.912 178.355C296.332 174.078 299.657 169.92 302.843 165.861C312.239 153.891 320.426 142.784 326.302 132.019C332.177 121.254 335.733 110.846 335.882 100.275C336.178 79.1485 322.859 57.2485 286.848 30.4726L287.16 30.0528C323.208 56.8557 336.705 78.8944 336.405 100.282C336.255 110.968 332.66 121.461 326.761 132.269C320.863 143.076 312.652 154.212 303.255 166.184C300.064 170.249 296.736 174.411 293.314 178.69L293.306 178.7L293.304 178.702C256.406 224.846 208.593 284.639 204.421 383.297C202.63 425.661 210.262 457.178 224.086 480.491C237.909 503.801 257.936 518.931 280.977 528.499C327.077 547.64 385.215 544.506 429.758 540.049L429.81 540.569ZM254.696 546.268C300.931 565.466 359.192 562.312 403.729 557.856L403.677 557.335C359.133 561.792 300.996 564.927 254.896 545.785C231.855 536.218 211.828 521.088 198.005 497.777C184.181 474.465 176.549 442.947 178.34 400.583C182.512 301.925 230.325 242.132 267.223 195.989C270.649 191.705 273.98 187.539 277.174 183.47C286.571 171.498 294.782 160.362 300.68 149.556C306.579 138.748 310.174 128.255 310.324 117.569C310.624 96.1808 297.127 74.1422 261.079 47.3392L260.767 47.759C296.778 74.535 310.097 96.4349 309.801 117.561C309.652 128.133 306.096 138.541 300.221 149.305C294.345 160.071 286.158 171.178 276.762 183.147C273.571 187.213 270.241 191.376 266.817 195.659L266.812 195.665C229.911 241.809 181.997 301.726 177.817 400.561C176.023 442.997 183.666 474.622 197.555 498.044C211.445 521.468 231.57 536.666 254.696 546.268ZM378.482 576.889C333.945 581.345 275.684 584.499 229.449 565.301C206.323 555.699 186.199 540.502 172.308 517.077C158.419 493.655 150.776 462.031 152.571 419.594C156.75 320.759 204.665 260.842 241.565 214.699L241.57 214.692L241.584 214.674C245.004 210.398 248.329 206.24 251.516 202.18C260.911 190.211 269.098 179.104 274.974 168.338C280.85 157.574 284.406 147.166 284.554 136.595C284.85 115.468 271.532 93.5681 235.52 66.7922L235.832 66.3724C271.88 93.1753 285.377 115.214 285.077 136.602C284.927 147.288 281.333 157.781 275.433 168.589C269.535 179.395 261.324 190.531 251.927 202.503C248.733 206.572 245.402 210.738 241.976 215.022C205.078 261.165 157.265 320.958 153.093 419.616C151.302 461.98 158.934 493.498 172.758 516.811C186.581 540.121 206.609 555.251 229.65 564.818C275.749 583.96 333.887 580.825 378.43 576.368L378.482 576.889ZM204.618 585.179C250.853 604.377 309.114 601.223 353.651 596.766L353.599 596.246C309.056 600.703 250.918 603.837 204.819 584.696C181.777 575.128 161.75 559.998 147.927 536.688C134.103 513.375 126.471 481.858 128.262 439.494C132.434 340.836 180.247 281.043 217.145 234.9L217.147 234.897L217.155 234.887C220.577 230.608 223.905 226.446 227.096 222.381C236.493 210.409 244.704 199.273 250.602 188.466C256.501 177.658 260.096 167.165 260.246 156.479C260.546 135.091 247.049 113.053 211.001 86.2498L210.689 86.6697C246.7 113.446 260.019 135.346 259.723 156.472C259.574 167.043 256.018 177.451 250.143 188.216C244.267 198.981 236.08 210.089 226.684 222.058C223.498 226.117 220.173 230.275 216.753 234.552L216.739 234.57L216.734 234.576C179.833 280.72 131.919 340.637 127.74 439.472C125.945 481.908 133.588 513.533 147.477 536.955C161.367 560.379 181.492 575.576 204.618 585.179ZM328.893 616.782C284.356 621.238 226.095 624.392 179.86 605.194C156.734 595.592 136.61 580.395 122.719 556.97C108.83 533.548 101.187 501.924 102.982 459.487C107.161 360.652 155.076 300.735 191.976 254.592L191.981 254.585L191.995 254.567C195.415 250.291 198.74 246.133 201.926 242.073C211.322 230.104 219.509 218.997 225.385 208.231C231.26 197.467 234.817 187.059 234.965 176.488C235.261 155.361 221.943 133.461 185.931 106.685L186.243 106.265C222.291 133.068 235.788 155.107 235.488 176.495C235.338 187.181 231.743 197.674 225.844 208.482C219.946 219.288 211.735 230.425 202.338 242.396C199.147 246.461 195.819 250.623 192.397 254.903L192.389 254.913L192.387 254.915C155.489 301.058 107.676 360.851 103.504 459.509C101.713 501.873 109.345 533.391 123.169 556.704C136.992 580.014 157.019 595.144 180.061 604.711C226.16 623.853 284.298 620.718 328.841 616.261L328.893 616.782ZM154.907 624.83C201.143 644.028 259.403 640.874 303.941 636.418L303.888 635.897C259.345 640.354 201.208 643.489 155.108 624.347C132.067 614.78 112.04 599.65 98.2166 576.339C84.3923 553.027 76.7604 521.509 78.5518 479.145C82.7237 380.487 130.537 320.694 167.435 274.551C170.86 270.267 174.192 266.101 177.385 262.032C186.783 250.06 194.993 238.924 200.892 228.118C206.791 217.31 210.386 206.817 210.535 196.131C210.835 174.743 197.339 152.704 161.291 125.901L160.978 126.321C196.99 153.097 210.308 174.997 210.012 196.123C209.864 206.695 206.308 217.103 200.433 227.867C194.557 238.633 186.369 249.74 176.974 261.709C173.791 265.764 170.471 269.916 167.056 274.187L167.053 274.19L167.032 274.217L167.028 274.221L167.023 274.227C130.123 320.371 82.2085 380.288 78.0291 479.123C76.2346 521.559 83.8776 553.184 97.7666 576.606C111.657 600.03 131.781 615.227 154.907 624.83ZM278.61 655.279C234.072 659.735 175.812 662.889 129.577 643.691C106.45 634.089 86.3262 618.892 72.4358 595.467C58.5468 572.045 50.9039 540.421 52.6983 497.984C56.8777 399.149 104.792 339.232 141.693 293.089L141.698 293.082L141.707 293.07C145.129 288.792 148.455 284.632 151.643 280.57C161.038 268.601 169.226 257.494 175.102 246.728C180.977 235.964 184.533 225.556 184.682 214.985C184.978 193.858 171.659 171.958 135.648 145.182L135.96 144.762C172.008 171.565 185.504 193.604 185.205 214.992C185.055 225.678 181.46 236.171 175.561 246.979C169.663 257.785 161.452 268.922 152.055 280.893C148.861 284.962 145.529 289.128 142.104 293.412C105.206 339.555 57.3929 399.348 53.221 498.006C51.4296 540.37 59.0616 571.888 72.8858 595.201C86.7088 618.511 106.736 633.641 129.777 643.208C175.877 662.35 234.014 659.215 278.558 654.758L278.61 655.279ZM103.743 661.501C149.978 680.699 208.239 677.545 252.776 673.089L252.724 672.568C208.181 677.025 150.044 680.16 103.944 661.018C80.9028 651.451 60.8754 636.321 47.0525 613.011C33.2282 589.698 25.5962 558.18 27.3877 515.816C31.5596 417.158 79.3727 357.365 116.271 311.222C119.696 306.938 123.028 302.772 126.221 298.703C135.619 286.731 143.829 275.595 149.728 264.789C155.627 253.981 159.221 243.488 159.371 232.802C159.671 211.414 146.174 189.375 110.126 162.572L109.814 162.992C145.826 189.768 159.144 211.668 158.848 232.795C158.7 243.366 155.144 253.774 149.268 264.538C143.392 275.304 135.205 286.411 125.81 298.38C122.622 302.442 119.295 306.602 115.874 310.88L115.864 310.892L115.859 310.898C78.9589 357.042 31.0444 416.959 26.865 515.794C25.0705 558.231 32.7135 589.855 46.6025 613.277C60.4928 636.702 80.6171 651.899 103.743 661.501ZM226.363 689.655C181.826 694.111 123.565 697.265 77.3299 678.068C54.2036 668.465 34.0794 653.268 20.189 629.844C6.30001 606.422 -1.34296 574.797 0.451529 532.36C4.63091 433.525 52.5454 373.608 89.4457 327.465L89.4507 327.458C92.8754 323.176 96.2052 319.012 99.3963 314.947C108.792 302.977 116.979 291.87 122.855 281.104C128.73 270.34 132.286 259.932 132.435 249.361C132.731 228.234 119.412 206.334 83.4008 179.558L83.713 179.139C119.761 205.942 133.258 227.98 132.958 249.368C132.808 260.054 129.213 270.547 123.314 281.355C117.416 292.162 109.205 303.298 99.8078 315.27C96.6141 319.338 93.2827 323.504 89.8571 327.788C52.9592 373.931 5.1461 433.725 0.974202 532.382C-0.81723 574.746 6.81475 606.264 20.639 629.577C34.4619 652.887 54.4893 668.017 77.5305 677.584C123.63 696.726 181.768 693.591 226.311 689.135L226.363 689.655Z" fill="url(#paint0_radial_11_136)" fill-opacity="0.58"/>
<defs>
<radialGradient id="paint0_radial_11_136" cx="0" cy="0" r="1" gradientUnits="userSpaceOnUse" gradientTransform="translate(277.641 408.081) rotate(-97.2624) scale(353.614 380.647)">
<stop stop-color="white"/>
<stop offset="1" stop-color="#1E1E1E" stop-opacity="0"/>
<stop offset="1" stop-color="#0E0E35" stop-opacity="0"/>
<stop offset="1" stop-color="white" stop-opacity="0"/>
</radialGradient>
</defs>
</svg>
