<svg width="958" height="999" viewBox="0 0 958 999" fill="none" xmlns="http://www.w3.org/2000/svg">
<path fill-rule="evenodd" clip-rule="evenodd" d="M0.994356 244.428C29.5826 293.725 69.9364 356.215 125.98 389.701C144.363 400.685 164.436 408.549 186.335 411.803C199.792 419.146 214.125 424.797 229.384 428.208C229.512 428.286 229.641 428.364 229.769 428.442C229.998 428.579 230.226 428.717 230.455 428.853C241.39 435.386 252.922 440.816 265.08 444.828C268.853 447.443 272.701 449.931 276.626 452.276C279.163 453.792 281.732 455.248 284.334 456.641C311.567 500.59 347.502 548.987 394.444 577.035C422.474 593.783 454.433 603.278 490.803 600.237C527.17 597.197 567.924 581.625 613.552 548.282C719.82 470.626 750.094 376.697 773.412 304.346L773.415 304.337L773.422 304.314L773.437 304.27L773.437 304.268L773.441 304.257C775.596 297.571 777.692 291.068 779.783 284.781C792.151 247.594 804.337 217.981 827.559 201.959C850.76 185.951 885.066 183.459 941.821 200.772L941.988 200.226C885.184 182.898 850.657 185.328 827.234 201.489C803.832 217.636 791.601 247.44 779.241 284.6C777.14 290.918 775.035 297.45 772.87 304.167C749.551 376.512 719.329 470.277 613.215 547.821C567.648 581.119 526.993 596.638 490.755 599.668C454.521 602.697 422.68 593.24 394.737 576.544C348.206 548.742 312.491 500.873 285.337 457.175C287.003 458.053 288.682 458.906 290.375 459.732C292.072 461.132 293.786 462.508 295.516 463.858C317.97 493.922 344.782 522.371 376.674 541.426C404.704 558.174 436.663 567.669 473.033 564.628C509.4 561.588 550.154 546.016 595.782 512.673C702.05 435.017 732.324 341.088 755.642 268.737C757.808 262.019 759.913 255.487 762.013 249.172C774.381 211.985 786.566 182.373 809.789 166.35C832.99 150.342 867.296 147.85 924.051 165.164L924.218 164.617C867.414 147.289 832.887 149.719 809.464 165.88C786.062 182.027 773.831 211.831 761.471 248.991C759.37 255.309 757.265 261.841 755.1 268.558C731.781 340.903 701.559 434.669 595.445 512.212C549.878 545.51 509.222 561.029 472.985 564.059C436.751 567.088 404.91 557.632 376.967 540.936C345.739 522.277 319.382 494.58 297.216 465.171C298.394 466.072 299.579 466.961 300.772 467.838C315.88 483.515 332.529 497.567 350.855 508.517C378.886 525.265 410.844 534.759 447.214 531.719C483.582 528.679 524.335 513.107 569.963 479.764C676.232 402.107 706.505 308.179 729.824 235.828C731.989 229.11 734.094 222.578 736.195 216.262C748.563 179.076 760.748 149.463 783.97 133.441C807.172 117.433 841.477 114.941 898.233 132.254L898.4 131.708C841.595 114.38 807.068 116.81 783.646 132.971C760.243 149.117 748.012 178.922 735.653 216.082C733.551 222.4 731.446 228.932 729.281 235.648C705.963 307.994 675.74 401.759 569.626 479.303C524.06 512.601 483.404 528.12 447.167 531.15C410.933 534.179 379.092 524.722 351.149 508.026C333.788 497.653 317.933 484.487 303.466 469.786C307.931 472.964 312.504 475.964 317.186 478.761C345.216 495.509 377.175 505.004 413.545 501.963C449.912 498.923 490.666 483.351 536.294 450.009C642.563 372.352 672.836 278.423 696.154 206.072C698.32 199.354 700.425 192.823 702.525 186.507C714.894 149.32 727.079 119.708 750.301 103.686C773.502 87.6773 807.808 85.1855 864.564 102.499L864.73 101.952C807.926 84.6242 773.399 87.0544 749.976 103.215C726.574 119.362 714.343 149.166 701.983 186.327C699.888 192.628 697.787 199.143 695.628 205.842L695.617 205.877L695.612 205.893C672.293 278.239 642.071 372.004 535.957 449.547C490.39 482.845 449.735 498.365 413.497 501.394C377.263 504.423 345.423 494.967 317.479 478.271C311.88 474.926 306.438 471.29 301.149 467.406C299.634 465.833 298.134 464.244 296.65 462.64C319.63 472.736 345.002 477.817 372.985 475.478C409.352 472.438 450.106 456.866 495.733 423.523C602.002 345.867 632.275 251.938 655.594 179.587C657.759 172.869 659.864 166.337 661.965 160.022C674.333 122.835 686.518 93.2226 709.74 77.2001C732.942 61.1918 767.247 58.7 824.003 76.0134L824.17 75.4669C767.366 58.1387 732.839 60.5689 709.416 76.7298C686.014 92.8766 673.782 122.681 661.423 159.841C659.322 166.159 657.216 172.691 655.051 179.408C631.733 251.753 601.51 345.518 495.396 423.062C449.83 456.36 409.174 471.879 372.937 474.909C344.57 477.28 318.895 471.999 295.675 461.583C293.624 459.347 291.603 457.083 289.61 454.795C288.526 453.276 287.453 451.755 286.391 450.232C299.218 452.526 312.683 453.237 326.814 452.055C363.181 449.015 403.935 433.443 449.563 400.101C555.832 322.444 586.105 228.515 609.424 156.164C611.589 149.446 613.694 142.914 615.795 136.599C628.163 99.4122 640.348 69.7999 663.57 53.7775C686.771 37.7691 721.077 35.2773 777.833 52.5907L777.999 52.0442C721.195 34.7161 686.668 37.1463 663.245 53.3072C639.843 69.4539 627.612 99.258 615.252 136.419C613.151 142.736 611.046 149.268 608.881 155.985C585.562 228.33 555.34 322.096 449.226 399.639C403.659 432.937 363.004 448.457 326.767 451.486C312.481 452.68 298.878 451.934 285.928 449.568C281.74 443.547 277.718 437.508 273.857 431.513C274.657 431.458 275.458 431.397 276.261 431.329C312.629 428.289 353.382 412.717 399.01 379.375C505.279 301.718 535.552 207.789 558.871 135.438C561.036 128.72 563.141 122.188 565.242 115.873C577.61 78.6863 589.795 49.0739 613.017 33.0515C636.219 17.0432 670.524 14.5514 727.28 31.8647L727.447 31.3183C670.642 13.9901 636.115 16.4203 612.693 32.5812C589.29 48.728 577.059 78.5321 564.7 115.693C562.598 122.01 560.493 128.542 558.328 135.259C535.01 207.604 504.787 301.37 398.673 378.913C353.107 412.211 312.451 427.731 276.214 430.76C275.308 430.836 274.405 430.904 273.504 430.964C268.083 422.528 262.979 414.181 258.179 406.092C284.974 398.235 313.892 383.745 345.088 360.948C451.356 283.292 481.63 189.363 504.948 117.012C507.114 110.294 509.219 103.762 511.319 97.4467C523.688 60.26 535.873 30.6477 559.095 14.6252C582.296 -1.38306 616.602 -3.87487 673.358 13.4385L673.524 12.8921C616.72 -4.43616 582.193 -2.00594 558.77 14.155C535.368 30.3017 523.137 60.1058 510.777 97.2664C508.676 103.584 506.571 110.116 504.406 116.833C481.087 189.178 450.865 282.943 344.751 360.487C313.542 383.293 284.637 397.759 257.878 405.584C255.93 402.298 254.032 399.055 252.182 395.866L251.688 396.153C253.514 399.301 255.388 402.504 257.311 405.749C256.011 406.125 254.715 406.486 253.425 406.831C243.416 391.796 234.425 376.857 226.364 362.957L225.87 363.243C233.902 377.095 242.864 391.988 252.841 406.986C249.515 407.864 246.222 408.64 242.962 409.315C223.16 384.065 206.553 357.098 192.695 333.201L192.2 333.488C206.017 357.313 222.581 384.219 242.337 409.444C237.327 410.464 232.396 411.249 227.542 411.81C196.229 379.491 171.498 340.106 152.134 306.716L151.64 307.002C170.938 340.28 195.598 379.57 226.827 411.892C225.307 412.061 223.795 412.208 222.291 412.334C217.575 412.728 212.932 412.911 208.363 412.894C163.886 377.901 130.586 325.751 105.964 283.293L105.47 283.58C129.983 325.85 163.146 377.82 207.434 412.887C200.284 412.818 193.314 412.258 186.52 411.253C184.39 410.09 182.282 408.883 180.196 407.637C124.292 374.235 84.0013 311.868 55.411 262.567L54.9168 262.854C83.505 312.151 123.859 374.642 179.903 408.127C181.549 409.111 183.208 410.069 184.882 411.002C163.66 407.625 144.168 399.902 126.273 389.211C70.3698 355.809 30.0788 293.442 1.48857 244.141L0.994356 244.428ZM284.739 456.21C285.98 456.873 287.228 457.522 288.484 458.156C286.643 456.606 284.822 455.027 283.02 453.423C283.589 454.35 284.162 455.279 284.739 456.21ZM281.978 451.72C284.83 454.298 287.733 456.81 290.685 459.248C291.416 459.604 292.149 459.955 292.885 460.301C291.629 458.586 290.387 456.867 289.158 455.146C287.653 453.416 286.164 451.673 284.691 449.918C283.232 449.64 281.781 449.342 280.338 449.024C280.881 449.92 281.428 450.819 281.978 451.72ZM279.566 448.851C279.868 449.351 280.171 449.851 280.476 450.353C279.855 449.783 279.236 449.21 278.619 448.634C278.934 448.707 279.25 448.78 279.566 448.851ZM279.929 448.347C281.315 448.658 282.709 448.951 284.11 449.225C279.325 443.495 274.715 437.64 270.275 431.719L270.099 431.728C273.234 437.13 276.509 442.688 279.929 448.347ZM269.469 431.755L269.458 431.761C272.551 437.095 275.782 442.583 279.155 448.171C278.697 448.066 278.24 447.959 277.783 447.849C272.36 442.741 267.122 437.401 262.064 431.89C264.511 431.903 266.98 431.858 269.469 431.755ZM281.533 452.087C282.259 453.277 282.992 454.471 283.731 455.668C281.435 454.422 279.164 453.127 276.919 451.785C273.552 449.774 270.241 447.657 266.986 445.444C270.441 446.536 273.947 447.513 277.503 448.369C278.835 449.623 280.178 450.863 281.533 452.087ZM298.416 465.367C297.583 464.736 296.754 464.099 295.929 463.455C295.506 462.888 295.084 462.321 294.664 461.753C294.887 461.854 295.111 461.955 295.335 462.056C296.355 463.167 297.382 464.271 298.416 465.367ZM294.214 462.106C294.006 461.824 293.797 461.542 293.59 461.26C293.245 461.101 292.902 460.94 292.559 460.779C293.109 461.224 293.66 461.666 294.214 462.106ZM294.354 460.983C294.224 460.923 294.093 460.863 293.963 460.803C293.637 460.36 293.312 459.917 292.988 459.474C293.442 459.978 293.897 460.481 294.354 460.983ZM285.594 450.088L285.661 450.185L285.577 450.085L285.594 450.088ZM273.206 431.556C277.021 437.486 280.993 443.46 285.13 449.42L284.998 449.395C280.142 443.602 275.466 437.679 270.964 431.686C271.709 431.648 272.456 431.605 273.206 431.556ZM257.612 406.257C262.386 414.303 267.461 422.609 272.852 431.006C272.083 431.055 271.316 431.097 270.55 431.134C264.659 423.269 259.067 415.289 253.759 407.333C255.039 406.989 256.323 406.631 257.612 406.257ZM253.176 407.488C249.87 408.365 246.597 409.14 243.356 409.817C249.141 417.171 255.198 424.377 261.537 431.315C264.285 431.339 267.059 431.29 269.861 431.166C264.008 423.339 258.45 415.4 253.176 407.488ZM261.284 431.884C266.236 437.296 271.361 442.546 276.663 447.576C272.829 446.627 269.054 445.536 265.338 444.311C259.462 440.235 253.769 435.847 248.255 431.203C252.53 431.609 256.873 431.839 261.284 431.884ZM242.731 409.946C248.468 417.249 254.473 424.408 260.757 431.307C256.262 431.246 251.84 430.991 247.487 430.554C240.741 424.826 234.263 418.717 228.044 412.327C232.864 411.757 237.759 410.967 242.731 409.946ZM227.328 412.41C225.656 412.601 223.993 412.765 222.339 412.903C217.857 413.278 213.442 413.462 209.094 413.466C215.682 418.608 222.515 423.371 229.6 427.671C235.106 428.899 240.734 429.834 246.485 430.45C239.841 424.771 233.459 418.726 227.328 412.41ZM247.254 431.105C241.766 430.547 236.391 429.7 231.124 428.587C241.36 434.671 252.118 439.784 263.422 443.667C257.869 439.739 252.481 435.536 247.254 431.105ZM208.165 413.464C214.499 418.439 221.059 423.067 227.854 427.271C213.778 423.96 200.498 418.736 187.971 412.037C194.538 412.941 201.268 413.429 208.165 413.464ZM404.923 614.657C348.879 581.171 308.525 518.681 279.937 469.384L280.431 469.097C309.022 518.398 349.312 580.765 405.216 614.167C433.159 630.863 465 640.319 501.234 637.29C537.471 634.26 578.127 618.741 623.693 585.443C729.808 507.899 760.03 414.134 783.348 341.789C785.513 335.072 787.619 328.54 789.72 322.222C802.079 285.062 814.311 255.258 837.713 239.111C861.136 222.95 895.663 220.52 952.467 237.848L952.3 238.394C895.544 221.081 861.239 223.573 838.037 239.581C814.815 255.604 802.63 285.216 790.262 322.403C788.161 328.718 786.056 335.25 783.891 341.968C760.572 414.319 730.299 508.248 624.03 585.904C578.403 619.247 537.649 634.819 501.282 637.859C464.912 640.9 432.953 631.405 404.923 614.657ZM284.577 508.338C313.165 557.635 353.519 620.126 409.563 653.611C437.593 670.359 469.552 679.854 505.922 676.813C542.289 673.773 583.043 658.201 628.671 624.859C734.939 547.202 765.212 453.273 788.531 380.922C790.696 374.204 792.802 367.672 794.902 361.357C807.27 324.17 819.455 294.558 842.677 278.535C865.879 262.527 900.185 260.035 956.94 277.349L957.107 276.802C900.303 259.474 865.776 261.904 842.353 278.065C818.951 294.212 806.72 324.016 794.36 361.177C792.263 367.483 790.161 374.003 788 380.708L787.993 380.729L787.989 380.74L787.988 380.743C764.67 453.088 734.448 546.854 628.333 624.397C582.767 657.695 542.111 673.215 505.874 676.244C469.64 679.273 437.799 669.817 409.856 653.121C353.953 619.719 313.662 557.352 285.071 508.051L284.577 508.338ZM410.053 693.371C354.01 659.886 313.656 597.395 285.068 548.098L285.562 547.811C314.152 597.112 354.443 659.479 410.346 692.881C438.29 709.577 470.13 719.033 506.365 716.004C542.602 712.975 583.257 697.455 628.824 664.158C734.938 586.614 765.16 492.849 788.479 420.503C790.644 413.786 792.749 407.254 794.85 400.937C807.21 363.776 819.441 333.972 842.843 317.825C866.266 301.664 900.793 299.234 957.597 316.562L957.431 317.109C900.675 299.796 866.369 302.287 843.168 318.296C819.946 334.318 807.761 363.93 795.392 401.117C793.292 407.433 791.187 413.964 789.022 420.682C765.703 493.034 735.43 586.962 629.161 664.619C583.533 697.962 542.779 713.533 506.412 716.574C470.042 719.614 438.084 710.119 410.053 693.371ZM282.996 588.294C311.584 637.591 351.938 700.081 407.981 733.567C436.012 750.315 467.97 759.81 504.34 756.769C540.707 753.729 581.461 738.157 627.089 704.814C733.358 627.158 763.631 533.229 786.95 460.878C789.115 454.16 791.22 447.628 793.321 441.313C805.689 404.126 817.874 374.514 841.096 358.491C864.297 342.483 898.603 339.991 955.359 357.305L955.525 356.758C898.721 339.43 864.194 341.86 840.771 358.021C817.369 374.168 805.138 403.972 792.778 441.132C790.677 447.45 788.572 453.982 786.407 460.699C763.088 533.044 732.866 626.81 626.752 704.353C581.185 737.651 540.53 753.17 504.293 756.2C468.058 759.229 436.218 749.773 408.274 733.077C352.371 699.675 312.08 637.308 283.49 588.007L282.996 588.294ZM404.662 773.96C348.618 740.475 308.264 677.984 279.676 628.687L280.17 628.4C308.76 677.701 349.051 740.068 404.955 773.47C432.898 790.166 464.739 799.622 500.973 796.593C537.21 793.564 577.866 778.044 623.432 744.746C729.546 667.203 759.769 573.437 783.087 501.092C785.252 494.375 787.358 487.843 789.459 481.526C801.818 444.365 814.049 414.561 837.452 398.414C860.875 382.253 895.401 379.823 952.206 397.151L952.039 397.698C895.283 380.384 860.978 382.876 837.776 398.884C814.554 414.907 802.369 444.519 790.001 481.706C787.9 488.021 785.795 494.553 783.63 501.271C760.311 573.622 730.038 667.551 623.769 745.208C578.141 778.55 537.388 794.122 501.021 797.162C464.65 800.203 432.692 790.708 404.662 773.96ZM276.148 669.107C304.737 718.404 345.09 780.894 401.134 814.38C429.164 831.128 461.123 840.623 497.493 837.582C533.86 834.542 574.614 818.97 620.242 785.627C726.51 707.971 756.784 614.042 780.102 541.691C782.268 534.973 784.373 528.441 786.473 522.126C798.842 484.939 811.027 455.327 834.249 439.304C857.45 423.296 891.756 420.804 948.512 438.117L948.678 437.571C891.874 420.243 857.347 422.673 833.924 438.834C810.522 454.981 798.291 484.785 785.931 521.945C783.835 528.249 781.734 534.766 779.574 541.467L779.567 541.488L779.564 541.499L779.561 541.506L779.56 541.51L779.56 541.512C756.241 613.857 726.019 707.622 619.905 785.166C574.338 818.464 533.683 833.983 497.445 837.013C461.211 840.042 429.371 830.586 401.427 813.89C345.524 780.488 305.233 718.121 276.643 668.82L276.148 669.107ZM398.174 854.719C342.13 821.233 301.776 758.743 273.188 709.445L273.682 709.159C302.272 758.46 342.563 820.827 398.467 854.229C426.41 870.924 458.251 880.381 494.485 877.352C530.722 874.322 571.378 858.803 616.944 825.505C723.058 747.961 753.281 654.196 776.599 581.851C778.764 575.134 780.87 568.602 782.971 562.284C795.33 525.124 807.562 495.32 830.964 479.173C854.387 463.012 888.914 460.582 945.718 477.91L945.551 478.456C888.795 461.143 854.49 463.635 831.288 479.643C808.066 495.666 795.881 525.278 783.513 562.465C781.412 568.78 779.307 575.312 777.142 582.03C753.823 654.381 723.55 748.31 617.281 825.966C571.654 859.309 530.9 874.881 494.533 877.921C458.163 880.962 426.204 871.467 398.174 854.719ZM271.37 749.6C299.958 798.898 340.312 861.388 396.356 894.874C424.386 911.622 456.344 921.117 492.714 918.076C529.082 915.036 569.835 899.464 615.463 866.121C721.732 788.465 752.005 694.536 775.324 622.185C777.489 615.467 779.594 608.935 781.695 602.619C794.063 565.433 806.248 535.82 829.47 519.798C852.672 503.79 886.977 501.298 943.733 518.611L943.9 518.065C887.095 500.737 852.568 503.167 829.146 519.328C805.743 535.475 793.512 565.279 781.153 602.439C779.053 608.751 776.95 615.278 774.787 621.988L774.783 621.999L774.781 622.004L774.781 622.006C751.463 694.351 721.24 788.116 615.126 865.66C569.56 898.958 528.904 914.477 492.667 917.507C456.433 920.536 424.592 911.079 396.649 894.383C340.745 860.982 300.454 798.615 271.864 749.314L271.37 749.6ZM396.08 934.767C340.036 901.281 299.683 838.79 271.094 789.493L271.589 789.207C300.179 838.507 340.47 900.874 396.373 934.276C424.317 950.972 456.157 960.429 492.391 957.399C528.629 954.37 569.284 938.851 614.851 905.553C720.965 828.009 751.187 734.244 774.506 661.898C776.671 655.182 778.776 648.649 780.877 642.332C793.237 605.172 805.468 575.367 828.87 559.221C852.293 543.06 886.82 540.63 943.624 557.958L943.458 558.504C886.702 541.191 852.396 543.683 829.195 559.691C805.973 575.713 793.788 605.326 781.419 642.512C779.319 648.828 777.214 655.36 775.048 662.078C751.73 734.429 721.457 828.357 615.188 906.014C569.56 939.357 528.806 954.928 492.439 957.969C456.069 961.009 424.11 951.515 396.08 934.767ZM272.631 829.063C301.22 878.36 341.574 940.851 397.617 974.336C425.648 991.084 457.606 1000.58 493.976 997.538C530.343 994.498 571.097 978.926 616.725 945.584C722.994 867.927 753.267 773.998 776.586 701.647C778.751 694.929 780.856 688.398 782.956 682.082C795.325 644.895 807.51 615.283 830.732 599.261C853.933 583.252 888.239 580.76 944.995 598.074L945.161 597.527C888.357 580.199 853.83 582.629 830.407 598.79C807.005 614.937 794.774 644.741 782.414 681.902C780.313 688.219 778.208 694.751 776.043 701.468C752.724 773.813 722.502 867.579 616.388 945.122C570.821 978.42 530.166 993.94 493.929 996.969C457.694 999.998 425.854 990.542 397.91 973.846C342.007 940.444 301.716 878.077 273.126 828.776L272.631 829.063Z" fill="url(#paint0_radial_1351_89)" fill-opacity="0.58"/>
<defs>
<radialGradient id="paint0_radial_1351_89" cx="0" cy="0" r="1" gradientUnits="userSpaceOnUse" gradientTransform="translate(519.33 564.429) rotate(-3.72464) scale(473.22 483.987)">
<stop stop-color="white"/>
<stop offset="1" stop-color="#1E1E1E" stop-opacity="0"/>
<stop offset="1" stop-color="#0E0E35" stop-opacity="0"/>
<stop offset="1" stop-color="white" stop-opacity="0"/>
</radialGradient>
</defs>
</svg>
