<svg width="801" height="228" viewBox="0 0 801 228" fill="none" xmlns="http://www.w3.org/2000/svg">
<path fill-rule="evenodd" clip-rule="evenodd" d="M-81.8118 -667.772C-74.9395 -611.201 -62.4456 -537.87 -24.1101 -485.025C-11.5354 -467.691 3.82069 -452.559 22.6701 -440.947C32.1497 -428.9 43.1002 -418.063 55.7838 -408.919C55.9436 -408.696 56.1039 -408.473 56.2646 -408.251C56.3479 -408.135 56.4314 -408.02 56.5149 -407.905C63.9943 -397.595 72.4577 -388.063 82.0549 -379.589C84.4931 -375.7 87.0512 -371.898 89.736 -368.197C91.4714 -365.805 93.2598 -363.455 95.103 -361.15C102.835 -310.029 116.815 -251.393 148.925 -207.13C168.099 -180.7 193.738 -159.39 228.369 -147.867C262.996 -136.345 306.589 -134.615 361.659 -147.303C489.918 -176.852 554.724 -251.278 604.643 -308.607L604.648 -308.612L604.666 -308.633C609.293 -313.947 613.792 -319.114 618.202 -324.084C644.211 -353.399 667.07 -375.823 694.724 -381.409C722.355 -386.991 754.871 -375.776 800.227 -337.517L800.596 -337.954C755.2 -376.245 722.505 -387.604 694.611 -381.969C666.742 -376.339 643.765 -353.757 617.775 -324.463C613.356 -319.483 608.849 -314.307 604.215 -308.985C554.298 -251.662 489.603 -177.366 361.53 -147.859C306.535 -135.189 263.053 -136.928 228.549 -148.409C194.048 -159.889 168.502 -181.117 149.388 -207.466C117.559 -251.341 103.574 -309.404 95.8155 -360.264C97.0009 -358.801 98.2088 -357.356 99.4395 -355.931C100.448 -353.975 101.482 -352.036 102.542 -350.113C111.346 -313.637 124.793 -276.931 146.608 -246.859C165.782 -220.429 191.422 -199.119 226.052 -187.596C260.679 -176.074 304.272 -174.344 359.342 -187.032C487.601 -216.581 552.407 -291.007 602.326 -348.336C606.961 -353.659 611.468 -358.834 615.885 -363.813C641.894 -393.128 664.753 -415.552 692.408 -421.138C720.038 -426.72 752.554 -415.505 797.911 -377.246L798.279 -377.683C752.884 -415.974 720.188 -427.333 692.295 -421.698C664.426 -416.068 641.449 -393.486 615.458 -364.192C611.04 -359.212 606.533 -354.037 601.9 -348.716L601.898 -348.714C551.982 -291.391 487.286 -217.095 359.214 -187.588C304.218 -174.918 260.736 -176.657 226.232 -188.138C191.732 -199.618 166.185 -220.846 147.071 -247.194C125.71 -276.64 112.386 -312.477 103.587 -348.237C104.315 -346.945 105.054 -345.661 105.806 -344.386C113.522 -324.027 123.295 -304.556 135.831 -287.275C155.004 -260.845 180.644 -239.535 215.274 -228.012C249.901 -216.49 293.494 -214.76 348.564 -227.448C476.823 -256.998 541.63 -331.423 591.548 -388.752C596.183 -394.075 600.69 -399.25 605.107 -404.229C631.116 -433.544 653.975 -455.968 681.63 -461.554C709.26 -467.136 741.776 -455.921 787.133 -417.662L787.501 -418.099C742.106 -456.39 709.41 -467.749 681.517 -462.114C653.648 -456.484 630.671 -433.902 604.68 -404.608C600.262 -399.628 595.754 -394.452 591.12 -389.13C541.204 -331.807 476.508 -257.511 348.436 -228.004C293.44 -215.334 249.958 -217.073 215.454 -228.554C180.954 -240.034 155.407 -261.262 136.293 -287.611C124.418 -303.98 115.026 -322.326 107.515 -341.535C110.369 -336.855 113.392 -332.298 116.594 -327.883C135.768 -301.452 161.408 -280.143 196.038 -268.62C230.665 -257.097 274.258 -255.368 329.328 -268.055C457.587 -297.605 522.393 -372.031 572.312 -429.359C576.947 -434.682 581.454 -439.858 585.871 -444.836C611.88 -474.151 634.739 -496.575 662.394 -502.162C690.024 -507.743 722.54 -496.528 767.897 -458.27L768.265 -458.706C722.87 -496.998 690.174 -508.356 662.28 -502.722C634.411 -497.092 611.435 -474.51 585.444 -445.216C581.026 -440.236 576.519 -435.061 571.885 -429.739L571.884 -429.738C521.967 -372.414 457.272 -298.119 329.2 -268.612C274.204 -255.941 230.722 -257.681 196.218 -269.162C161.717 -280.642 136.171 -301.87 117.057 -328.218C113.227 -333.497 109.655 -338.982 106.322 -344.635C105.549 -346.677 104.796 -348.728 104.063 -350.786C121.213 -332.459 142.535 -317.8 169.179 -308.934C203.807 -297.412 247.4 -295.682 302.469 -308.37C430.729 -337.92 495.535 -412.345 545.454 -469.674C550.089 -474.997 554.596 -480.172 559.013 -485.151C585.022 -514.466 607.881 -536.89 635.535 -542.476C663.165 -548.058 695.682 -536.843 741.038 -498.584L741.407 -499.021C696.011 -537.312 663.316 -548.671 635.422 -543.036C607.553 -537.406 584.576 -514.824 558.585 -485.53C554.167 -480.551 549.661 -475.375 545.027 -470.054L545.025 -470.052C495.109 -412.729 430.414 -338.433 302.341 -308.926C247.346 -296.256 203.863 -297.995 169.36 -309.476C142.35 -318.464 120.827 -333.426 103.584 -352.142C102.578 -355.005 101.611 -357.882 100.68 -360.77C100.282 -362.593 99.8944 -364.414 99.5173 -366.231C110.406 -359.073 122.504 -353.119 135.958 -348.642C170.586 -337.12 214.179 -335.39 269.248 -348.077C397.507 -377.627 462.314 -452.053 512.233 -509.381C516.868 -514.704 521.375 -519.88 525.792 -524.859C551.801 -554.173 574.66 -576.597 602.314 -582.184C629.944 -587.765 662.461 -576.551 707.817 -538.292L708.186 -538.728C662.79 -577.02 630.095 -588.379 602.201 -582.744C574.332 -577.114 551.355 -554.532 525.364 -525.238C520.946 -520.258 516.44 -515.083 511.806 -509.762L511.804 -509.76C461.888 -452.436 397.193 -378.141 269.12 -348.634C214.125 -335.964 170.642 -337.703 136.139 -349.184C122.537 -353.71 110.326 -359.751 99.3534 -367.024C97.8739 -374.208 96.5542 -381.342 95.3652 -388.374C96.1215 -388.11 96.8822 -387.85 97.6473 -387.596C132.275 -376.073 175.868 -374.344 230.937 -387.031C359.196 -416.581 424.003 -491.007 473.922 -548.335C478.557 -553.658 483.063 -558.834 487.481 -563.812C513.49 -593.127 536.349 -615.551 564.003 -621.138C591.633 -626.719 624.15 -615.504 669.506 -577.246L669.875 -577.682C624.479 -615.974 591.784 -627.332 563.89 -621.698C536.021 -616.068 513.044 -593.486 487.053 -564.192C482.635 -559.212 478.129 -554.037 473.495 -548.715L473.493 -548.714C423.577 -491.39 358.882 -417.095 230.809 -387.588C175.814 -374.917 132.331 -376.657 97.8277 -388.138C96.9651 -388.425 96.1081 -388.718 95.2567 -389.017C93.5941 -398.906 92.189 -408.588 90.9603 -417.914C118.685 -414.588 150.972 -416.523 188.623 -425.198C316.882 -454.747 381.689 -529.173 431.608 -586.502C436.243 -591.825 440.749 -597 445.167 -601.979C471.176 -631.294 494.035 -653.718 521.689 -659.304C549.319 -664.886 581.835 -653.671 627.192 -615.412L627.561 -615.849C582.165 -654.14 549.47 -665.499 521.576 -659.864C493.707 -654.234 470.73 -631.652 444.739 -602.358C440.321 -597.379 435.815 -592.203 431.181 -586.882L431.179 -586.88C381.263 -529.557 316.568 -455.261 188.495 -425.754C150.828 -417.076 118.563 -415.158 90.8834 -418.499C90.3865 -422.287 89.9185 -426.016 89.474 -429.675L88.9069 -429.606C89.3458 -425.992 89.8077 -422.311 90.2978 -418.571C88.9541 -418.737 87.6212 -418.915 86.2991 -419.106C83.0177 -436.868 80.6338 -454.14 78.6961 -470.091L78.129 -470.022C80.0599 -454.127 82.4347 -436.909 85.7018 -419.193C82.298 -419.696 78.9658 -420.279 75.7035 -420.941C67.4411 -451.948 62.7912 -483.275 59.4598 -510.698L58.8927 -510.629C62.214 -483.289 66.8484 -452.034 75.0782 -421.069C70.071 -422.104 65.2291 -423.324 60.5467 -424.718C44.4854 -466.755 37.2563 -512.695 32.6014 -551.013L32.0343 -550.944C36.6735 -512.756 43.8743 -466.931 59.8566 -424.925C58.3934 -425.368 56.9458 -425.828 55.5137 -426.304C51.0226 -427.799 46.6832 -429.458 42.49 -431.273C15.3805 -480.95 5.29935 -541.997 -0.61957 -590.72L-1.1867 -590.651C4.70598 -542.144 14.7318 -481.315 41.6378 -431.645C35.0925 -434.523 28.9057 -437.782 23.0562 -441.38C21.5563 -443.288 20.0934 -445.227 18.6663 -447.194C-19.5731 -499.907 -32.0578 -573.099 -38.9307 -629.674L-39.4978 -629.605C-32.6255 -573.034 -20.1316 -499.704 18.2039 -446.859C19.3298 -445.306 20.4781 -443.772 21.6492 -442.256C3.47081 -453.714 -11.4074 -468.487 -23.6477 -485.361C-61.8871 -538.073 -74.3718 -611.266 -81.2447 -667.841L-81.8118 -667.772ZM95.6452 -361.387C96.5248 -360.289 97.4169 -359.201 98.3217 -358.124C97.2395 -360.274 96.1868 -362.441 95.1626 -364.626C95.3207 -363.55 95.4815 -362.47 95.6452 -361.387ZM94.8748 -366.601C96.482 -363.108 98.161 -359.657 99.9157 -356.253C100.447 -355.638 100.983 -355.027 101.523 -354.419C101.043 -356.49 100.578 -358.559 100.127 -360.625C99.4234 -362.807 98.7408 -364.996 98.078 -367.189C96.846 -368.019 95.6298 -368.865 94.429 -369.725C94.5752 -368.687 94.7237 -367.646 94.8748 -366.601ZM93.7869 -370.188C93.868 -369.61 93.9499 -369.03 94.0325 -368.449C93.6857 -369.218 93.3424 -369.988 93.0025 -370.76C93.1433 -370.657 93.2843 -370.554 93.4256 -370.451C93.5459 -370.363 93.6663 -370.276 93.7869 -370.188ZM94.3191 -370.508C95.4708 -369.676 96.6367 -368.859 97.8173 -368.056C95.6744 -375.207 93.7417 -382.404 91.9905 -389.594L91.8259 -389.656C92.5805 -383.455 93.4027 -377.057 94.3191 -370.508ZM91.2363 -389.878L91.2235 -389.877C91.967 -383.756 92.7763 -377.44 93.677 -370.974C93.2973 -371.252 92.9192 -371.531 92.5426 -371.811C89.5688 -378.641 86.856 -385.612 84.3755 -392.669C86.6203 -391.694 88.907 -390.763 91.2363 -389.878ZM94.3208 -366.439C94.5203 -365.059 94.7241 -363.673 94.9325 -362.282C93.3121 -364.331 91.7345 -366.415 90.1984 -368.533C87.8952 -371.708 85.6854 -374.957 83.5646 -378.272C86.3108 -375.908 89.1481 -373.63 92.08 -371.443C92.811 -369.766 93.5578 -368.098 94.3208 -366.439ZM104.613 -347.584C104.096 -348.492 103.585 -349.405 103.079 -350.321C102.913 -351.009 102.749 -351.697 102.586 -352.385C102.752 -352.203 102.918 -352.022 103.084 -351.842C103.584 -350.419 104.094 -349 104.613 -347.584ZM102.034 -352.237C101.953 -352.578 101.873 -352.919 101.793 -353.26C101.539 -353.542 101.287 -353.825 101.035 -354.109C101.365 -353.483 101.698 -352.859 102.034 -352.237ZM102.605 -353.214C102.508 -353.32 102.412 -353.426 102.316 -353.533C102.263 -353.759 102.211 -353.985 102.158 -354.211C102.086 -354.52 102.015 -354.83 101.943 -355.139C102.162 -354.496 102.382 -353.855 102.605 -353.214ZM98.8411 -366.678L98.8651 -366.562L98.8269 -366.688L98.8411 -366.678ZM94.749 -388.59C95.9214 -381.637 97.2215 -374.581 98.6774 -367.475L98.5659 -367.549C96.3833 -374.786 94.417 -382.072 92.6374 -389.353C93.3374 -389.095 94.0413 -388.84 94.749 -388.59ZM90.3746 -417.985C91.5954 -408.709 92.9907 -399.077 94.6406 -389.235C93.9144 -389.493 93.1923 -389.756 92.4742 -390.023C90.1552 -399.572 88.1558 -409.11 86.409 -418.513C87.7203 -418.325 89.0422 -418.149 90.3746 -417.985ZM85.8116 -418.6C82.4276 -419.095 79.1136 -419.672 75.8682 -420.325C78.2908 -411.287 81.0218 -402.279 84.1179 -393.405C86.6344 -392.302 89.2039 -391.254 91.8275 -390.265C89.5287 -399.765 87.5453 -409.25 85.8116 -418.6ZM83.6608 -392.982C86.0825 -386.057 88.7268 -379.214 91.6207 -372.502C88.4697 -374.885 85.4292 -377.374 82.4949 -379.962C78.6983 -386.023 75.1929 -392.298 71.9523 -398.737C75.7224 -396.681 79.6236 -394.76 83.6608 -392.982ZM75.2427 -420.452C77.6413 -411.481 80.343 -402.536 83.4035 -393.72C79.2963 -395.546 75.331 -397.521 71.5022 -399.636C67.5557 -407.557 64.006 -415.724 60.8045 -424.046C65.4595 -422.673 70.2704 -421.471 75.2427 -420.452ZM60.114 -424.251C58.5017 -424.734 56.9082 -425.238 55.3333 -425.762C51.066 -427.182 46.9352 -428.751 42.9361 -430.459C46.9684 -423.139 51.3739 -416.07 56.1939 -409.328C60.7726 -406.032 65.5776 -402.957 70.6214 -400.127C66.7496 -407.962 63.2627 -416.032 60.114 -424.251ZM71.0706 -399.222C66.2459 -401.895 61.6375 -404.789 57.2348 -407.886C64.2487 -398.263 72.1252 -389.329 80.9877 -381.309C77.429 -387.106 74.1309 -393.091 71.0706 -399.222ZM42.083 -430.826C45.947 -423.76 50.1558 -416.923 54.7463 -410.383C43.1112 -418.968 32.9596 -428.998 24.0811 -440.088C29.7623 -436.672 35.7566 -433.573 42.083 -430.826ZM143.747 -168.421C105.411 -221.266 92.9173 -294.596 86.0449 -351.167L86.6121 -351.236C93.4849 -294.661 105.97 -221.469 144.209 -168.756C163.323 -142.408 188.87 -121.18 223.37 -109.7C257.874 -98.2188 301.356 -96.4795 356.352 -109.15C484.424 -138.657 549.12 -212.952 599.036 -270.276C603.67 -275.598 608.178 -280.774 612.596 -285.754C638.587 -315.048 661.564 -337.63 689.433 -343.26C717.326 -348.895 750.022 -337.536 795.417 -299.244L795.049 -298.808C749.692 -337.067 717.176 -348.281 689.546 -342.7C661.891 -337.113 639.032 -314.689 613.023 -285.375C608.606 -280.396 604.099 -275.22 599.464 -269.897C549.545 -212.569 484.739 -138.143 356.48 -108.593C301.41 -95.9057 257.817 -97.6355 223.19 -109.158C188.56 -120.681 162.92 -141.99 143.747 -168.421ZM74.9749 -313.532C81.8472 -256.961 94.3411 -183.63 132.677 -130.785C151.85 -104.355 177.49 -83.0455 212.12 -71.5224C246.747 -60.0002 290.34 -58.2704 345.41 -70.958C473.669 -100.508 538.475 -174.933 588.394 -232.262C593.029 -237.585 597.536 -242.761 601.953 -247.739C627.962 -277.054 650.821 -299.478 678.476 -305.065C706.106 -310.646 738.622 -299.431 783.979 -261.172L784.347 -261.609C738.952 -299.901 706.256 -311.259 678.363 -305.624C650.494 -299.995 627.517 -277.412 601.526 -248.118C597.107 -243.138 592.6 -237.963 587.966 -232.64C538.05 -175.317 473.354 -101.022 345.282 -71.5147C290.286 -58.8443 246.804 -60.5835 212.3 -72.0645C177.8 -83.5446 152.253 -104.772 133.139 -131.121C94.8995 -183.833 82.4148 -257.026 75.542 -313.601L74.9749 -313.532ZM117.474 -94.0429C79.139 -146.888 66.6452 -220.219 59.7728 -276.79L60.34 -276.858C67.2128 -220.283 79.6975 -147.091 117.937 -94.3783C137.051 -68.0299 162.598 -46.802 197.098 -35.3219C231.602 -23.8409 275.084 -22.1017 330.08 -34.7722C458.152 -64.279 522.848 -138.575 572.764 -195.898L572.766 -195.9C577.399 -201.221 581.906 -206.396 586.324 -211.376C612.315 -240.67 635.292 -263.252 663.161 -268.882C691.054 -274.517 723.75 -263.158 769.145 -224.867L768.777 -224.43C723.42 -262.689 690.904 -273.904 663.274 -268.322C635.619 -262.735 612.76 -240.311 586.751 -210.997C582.334 -206.018 577.827 -200.843 573.192 -195.519C523.273 -138.191 458.467 -63.7653 330.208 -34.2155C275.138 -21.5279 231.545 -23.2577 196.918 -34.7798C162.288 -46.303 136.648 -67.6125 117.474 -94.0429ZM42.0439 -240.655C48.9163 -184.084 61.4101 -110.754 99.7456 -57.9088C118.919 -31.4784 144.559 -10.1689 179.189 1.35422C213.816 12.8764 257.409 14.6062 312.479 1.9186C440.738 -27.6312 505.544 -102.057 555.463 -159.385C560.098 -164.708 564.605 -169.884 569.022 -174.863C595.031 -204.177 617.89 -226.601 645.545 -232.188C673.175 -237.769 705.691 -226.555 751.048 -188.296L751.416 -188.732C706.021 -227.024 673.325 -238.383 645.432 -232.748C617.563 -227.118 594.586 -204.536 568.595 -175.242C564.177 -170.262 559.669 -165.086 555.035 -159.764C505.119 -102.44 440.423 -28.1449 312.351 1.36189C257.355 14.0324 213.873 12.2931 179.369 0.812125C144.869 -10.6679 119.322 -31.8959 100.208 -58.2443C61.9686 -110.957 49.4839 -184.149 42.6111 -240.724L42.0439 -240.655ZM80.792 -22.0844C42.4566 -74.9294 29.9627 -148.26 23.0904 -204.831L23.6575 -204.9C30.5304 -148.325 43.0151 -75.1325 81.2545 -22.4199C100.368 3.92851 125.915 25.1564 160.416 36.6365C194.919 48.1175 238.402 49.8567 293.397 37.1862C421.47 7.67943 486.165 -66.6161 536.082 -123.939L536.083 -123.941C540.717 -129.263 545.223 -134.438 549.641 -139.417C575.632 -168.711 598.609 -191.294 626.478 -196.924C654.372 -202.558 687.067 -191.2 732.463 -152.908L732.094 -152.471C686.738 -190.73 654.221 -201.945 626.591 -196.364C598.937 -190.777 576.078 -168.353 550.069 -139.038C545.652 -134.06 541.145 -128.884 536.51 -123.561C486.591 -66.2325 421.785 8.19317 293.526 37.743C238.456 50.4305 194.863 48.7008 160.235 37.1786C125.605 25.6555 99.9655 4.34595 80.792 -22.0844ZM3.93534 -169.064C10.8077 -112.493 23.3015 -39.1623 61.637 13.6827C80.8104 40.113 106.45 61.4225 141.08 72.9457C175.708 84.4679 219.301 86.1976 274.37 73.5101C402.63 43.9602 467.436 -30.4654 517.355 -87.794C521.99 -93.117 526.497 -98.2926 530.914 -103.271C556.923 -132.586 579.782 -155.01 607.436 -160.596C635.066 -166.178 667.583 -154.963 712.939 -116.704L713.308 -117.141C667.912 -155.433 635.217 -166.791 607.323 -161.156C579.454 -155.527 556.477 -132.944 530.486 -103.65C526.068 -98.6708 521.562 -93.4956 516.928 -88.1741L516.926 -88.1724C467.01 -30.849 402.315 43.4465 274.242 72.9533C219.247 85.6238 175.764 83.8846 141.261 72.4036C106.76 60.9235 81.2134 39.6956 62.0994 13.3472C23.86 -39.3654 11.3753 -112.558 4.50247 -169.133L3.93534 -169.064ZM43.035 49.5987C4.69956 -3.24628 -7.7943 -76.577 -14.6666 -133.148L-14.0995 -133.217C-7.22669 -76.6419 5.25802 -3.44939 43.4974 49.2632C62.6114 75.6116 88.1581 96.8396 122.659 108.32C157.162 119.801 200.645 121.54 255.64 108.869C383.713 79.3626 448.408 5.06705 498.325 -52.2564L498.326 -52.258C502.96 -57.5796 507.466 -62.7548 511.884 -67.7343C537.875 -97.0284 560.852 -119.611 588.721 -125.24C616.615 -130.875 649.31 -119.517 694.706 -81.225L694.337 -80.7883C648.981 -119.047 616.464 -130.262 588.834 -124.68C561.18 -119.094 538.321 -96.6698 512.312 -67.3552C507.895 -62.3765 503.388 -57.201 498.753 -51.8779C448.834 5.45062 384.028 79.8763 255.768 109.426C200.699 122.114 157.106 120.384 122.478 108.862C87.8483 97.3386 62.2085 76.0291 43.035 49.5987ZM-32.1462 -96.9515C-25.2738 -40.3805 -12.78 32.9502 25.5555 85.7952C44.7289 112.226 70.3688 133.535 104.999 145.058C139.626 156.58 183.219 158.31 238.289 145.623C366.548 116.073 431.354 41.6471 481.273 -15.6814C485.908 -21.0045 490.415 -26.1801 494.832 -31.1587C520.841 -60.4733 543.7 -82.8974 571.355 -88.4839C598.985 -94.0655 631.501 -82.8507 676.858 -44.5918L677.226 -45.0285C631.831 -83.3201 599.135 -94.6787 571.242 -89.0439C543.372 -83.414 520.396 -60.8319 494.405 -31.5378C489.987 -26.5583 485.48 -21.3831 480.847 -16.0615L480.845 -16.0599C430.929 41.2635 366.233 115.559 238.161 145.066C183.165 157.736 139.683 155.997 105.179 144.516C70.6785 133.036 45.1319 111.808 26.0179 85.4597C-12.2215 32.7471 -24.7062 -40.4454 -31.5791 -97.0204L-32.1462 -96.9515ZM9.5973 122.358C-28.7382 69.5132 -41.232 -3.81751 -48.1044 -60.3885L-47.5372 -60.4574C-40.6644 -3.88238 -28.1797 69.3101 10.0597 122.023C29.1737 148.371 54.7204 169.599 89.2211 181.079C123.725 192.56 167.207 194.299 222.203 181.629C350.275 152.122 414.971 77.8265 464.887 20.5031L464.888 20.5014C469.522 15.1799 474.029 10.0047 478.447 5.02517C504.438 -24.2689 527.414 -46.8511 555.283 -52.4809C583.177 -58.1157 615.873 -46.7571 661.268 -8.4655L660.9 -8.02884C615.543 -46.2877 583.027 -57.5025 555.397 -51.9209C527.742 -46.3344 504.883 -23.9103 478.874 5.40432C474.457 10.3829 469.95 15.5585 465.315 20.8816C415.396 78.2101 350.59 152.636 222.331 182.186C167.261 194.873 123.668 193.143 89.0407 181.621C54.4106 170.098 28.7707 148.789 9.5973 122.358ZM-62.2692 -23.4091C-55.3968 33.1619 -42.903 106.493 -4.56752 159.338C14.6059 185.768 40.2458 207.077 74.8759 218.601C109.503 230.123 153.096 231.853 208.166 219.165C336.425 189.615 401.231 115.189 451.15 57.8609C455.785 52.5379 460.292 47.3623 464.709 42.3837C490.718 13.069 513.577 -9.35498 541.232 -14.9415C568.862 -20.5231 601.378 -9.30829 646.735 28.9505L647.103 28.5139C601.708 -9.77772 569.012 -21.1363 541.119 -15.5015C513.249 -9.87167 490.273 12.7105 464.282 42.0046C459.863 46.9846 455.356 52.1604 450.722 57.4825C400.806 114.806 336.11 189.101 208.038 218.608C153.042 231.279 109.56 229.54 75.0563 218.059C40.5555 206.578 15.0089 185.351 -4.10508 159.002C-42.3445 106.289 -54.8292 33.097 -61.702 -23.478L-62.2692 -23.4091Z" fill="url(#paint0_radial_6_132)" fill-opacity="0.58"/>
<defs>
<radialGradient id="paint0_radial_6_132" cx="0" cy="0" r="1" gradientUnits="userSpaceOnUse" gradientTransform="translate(291.907 -156.653) rotate(-3.72464) scale(473.22 483.987)">
<stop stop-color="white"/>
<stop offset="1" stop-color="#1E1E1E" stop-opacity="0"/>
<stop offset="1" stop-color="#0E0E35" stop-opacity="0"/>
<stop offset="1" stop-color="white" stop-opacity="0"/>
</radialGradient>
</defs>
</svg>
