<svg width="237" height="172" viewBox="0 0 237 172" fill="none" xmlns="http://www.w3.org/2000/svg">
<path d="M39.9813 -1.00136e-05C53.5146 -1.00136e-05 63.5479 3.73332 70.0813 11.2C77.0813 18.6667 80.5813 30.5667 80.5813 46.9C80.5813 71.1666 79.6479 91 77.7813 106.4C76.3813 121.333 73.1146 133.233 67.9813 142.1C62.8479 150.967 55.1479 157.5 44.8813 161.7C34.6146 165.9 21.0813 169.167 4.28125 171.5V135.8C13.1479 133.933 20.1479 132.067 25.2813 130.2C30.4146 128.333 34.1479 125.767 36.4813 122.5C38.8146 118.767 40.2146 114.1 40.6813 108.5C41.6146 102.9 42.0813 95.4333 42.0813 86.1C28.0813 86.1 17.5813 82.8333 10.5813 76.3C3.58125 69.7666 0.081251 58.5666 0.081251 42.7C0.081251 14.2333 13.3813 -1.00136e-05 39.9813 -1.00136e-05ZM195.841 -1.00136e-05C209.374 -1.00136e-05 219.407 3.73332 225.941 11.2C232.941 18.6667 236.441 30.5667 236.441 46.9C236.441 71.1666 235.507 91 233.641 106.4C232.241 121.333 228.974 133.233 223.841 142.1C218.707 150.967 211.007 157.5 200.741 161.7C190.474 165.9 176.941 169.167 160.141 171.5V135.8C169.007 133.933 176.007 132.067 181.141 130.2C186.274 128.333 190.007 125.767 192.341 122.5C194.674 118.767 196.074 114.1 196.541 108.5C197.474 102.9 197.941 95.4333 197.941 86.1C183.941 86.1 173.441 82.8333 166.441 76.3C159.441 69.7666 155.941 58.5666 155.941 42.7C155.941 14.2333 169.241 -1.00136e-05 195.841 -1.00136e-05Z" fill="#2575ED" fill-opacity="0.19"/>
</svg>
